<?xml version="1.0" encoding="UTF-8" standalone="no"?>
<!-- Created with Inkscape (http://www.inkscape.org/) -->

<svg
   xmlns:dc="http://purl.org/dc/elements/1.1/"
   xmlns:cc="http://creativecommons.org/ns#"
   xmlns:rdf="http://www.w3.org/1999/02/22-rdf-syntax-ns#"
   xmlns:svg="http://www.w3.org/2000/svg"
   xmlns="http://www.w3.org/2000/svg"
   xmlns:xlink="http://www.w3.org/1999/xlink"
   xmlns:sodipodi="http://sodipodi.sourceforge.net/DTD/sodipodi-0.dtd"
   xmlns:inkscape="http://www.inkscape.org/namespaces/inkscape"
   version="1.1"
   width="101mm"
   height="42mm"
   viewBox="0 0 101 42"
   id="svg2896"
   xml:space="preserve"
   style="fill-rule:evenodd"
   inkscape:version="0.47pre4 r22446"
   sodipodi:docname="biorob_alt.svg"><metadata
   id="metadata44"><rdf:RDF><cc:Work
       rdf:about=""><dc:format>image/svg+xml</dc:format><dc:type
         rdf:resource="http://purl.org/dc/dcmitype/StillImage" /><dc:title></dc:title></cc:Work></rdf:RDF></metadata><sodipodi:namedview
   pagecolor="#ffffff"
   bordercolor="#666666"
   borderopacity="1"
   objecttolerance="10"
   gridtolerance="10"
   guidetolerance="10"
   inkscape:pageopacity="0"
   inkscape:pageshadow="2"
   inkscape:window-width="1375"
   inkscape:window-height="839"
   id="namedview42"
   showgrid="false"
   inkscape:zoom="1.4142136"
   inkscape:cx="226.8187"
   inkscape:cy="-47.093788"
   inkscape:window-x="0"
   inkscape:window-y="0"
   inkscape:window-maximized="0"
   inkscape:current-layer="svg2896" />
 <defs
   id="defs2898"><linearGradient
   id="linearGradient3641"><stop
     style="stop-color:#ffffff;stop-opacity:1;"
     offset="0"
     id="stop3643" /><stop
     style="stop-color:#4d4d4d;stop-opacity:1;"
     offset="1"
     id="stop3645" /></linearGradient><linearGradient
   id="linearGradient3629"><stop
     style="stop-color:#000000;stop-opacity:1;"
     offset="0"
     id="stop3631" /><stop
     style="stop-color:#666666;stop-opacity:1;"
     offset="1"
     id="stop3633" /></linearGradient><inkscape:perspective
   sodipodi:type="inkscape:persp3d"
   inkscape:vp_x="0 : 74.409447 : 1"
   inkscape:vp_y="0 : 1000 : 0"
   inkscape:vp_z="357.87402 : 74.409447 : 1"
   inkscape:persp3d-origin="178.93701 : 49.606298 : 1"
   id="perspective46" />
  <style
   type="text/css"
   id="style2900" />
  <radialGradient
   cx="20.682899"
   cy="21"
   r="49.695301"
   fx="20.682899"
   fy="21"
   id="id0"
   gradientUnits="userSpaceOnUse">
   <stop
   id="stop2903"
   style="stop-color:#ffffff;stop-opacity:1"
   offset="0" />
   <stop
   id="stop2905"
   style="stop-color:#e0f1fc;stop-opacity:1"
   offset="0.38039199" />
   <stop
   id="stop2907"
   style="stop-color:#c5e5f9;stop-opacity:1"
   offset="1" />
  </radialGradient>
 <linearGradient
   inkscape:collect="always"
   xlink:href="#linearGradient3629"
   id="linearGradient3635"
   x1="16.607586"
   y1="-17.300108"
   x2="15.858475"
   y2="27.39052"
   gradientUnits="userSpaceOnUse"
   gradientTransform="matrix(1.038869,0,0,0.99982637,3.7176401,-2.2655412e-4)" />
  
  
  
  
  
  
  
  
  
  
  
  
  
  
  
  
  
  
  
  
  
  
  
  
  
  
  
  
 
   
   
  
    
    
    
   <linearGradient
   inkscape:collect="always"
   xlink:href="#linearGradient3641"
   id="linearGradient3647"
   x1="95.680222"
   y1="35.990673"
   x2="95.59211"
   y2="41.352894"
   gradientUnits="userSpaceOnUse"
   gradientTransform="matrix(0.11111111,0,0,1.0526316,-13.55635,34.542801)" /></defs>
 <path
   sodipodi:nodetypes="ccccc"
   id="path3714"
   d="m 158.13933,61.474434 0,-47.23836 -253.712378,0 0,47.23836 253.712378,0 z"
   style="fill:#515151;fill-opacity:1;stroke:#999999;stroke-width:0.28222224000000001;stroke-miterlimit:4;stroke-opacity:1;stroke-dasharray:none"
   inkscape:export-filename="/home/jvanden/public_html/optiweb/images/all.png"
   inkscape:export-xdpi="90.001915"
   inkscape:export-ydpi="90.001915" /><path
   style="fill:url(#linearGradient3635);fill-opacity:1;stroke:#999999;stroke-width:0.28222223000000002;stroke-linecap:round;stroke-miterlimit:4;stroke-opacity:1;stroke-dasharray:none;stroke-dashoffset:0"
   d="m -90.378703,-16.87407 243.323683,0 c 2.87767,0 5.19435,2.229613 5.19435,4.999132 l 0,26.13942 -253.712378,0 0,-26.13942 c 0,-2.769519 2.316678,-4.999132 5.194345,-4.999132 z"
   id="rect2852"
   sodipodi:nodetypes="ccccccc"
   inkscape:export-filename="/home/jvanden/public_html/optiweb/images/all.png"
   inkscape:export-xdpi="90.001915"
   inkscape:export-ydpi="90.001915" /><g
   id="g3683"
   transform="translate(10.442223,0.31523777)"
   inkscape:export-filename="/home/jvanden/public_html/optiweb/images/all.png"
   inkscape:export-xdpi="90.001915"
   inkscape:export-ydpi="90.001915"><path
     d="m 113.16804,-6.585571 0,-3.597348 0,0 0.44825,0 0,0 1.01952,0 c 0.39284,0 0.70486,0.07997 0.93427,0.2408161 0.23025,0.1599962 0.3454,0.3779418 0.3454,0.6521427 0,0.2733538 -0.11515,0.4904524 -0.3454,0.6512956 -0.036,0.026359 -0.0756,0.050077 -0.11779,0.072947 l 0,0 c 0.14061,0.045692 0.26194,0.1089729 0.36563,0.1872021 0.247,0.187202 0.37092,0.4403259 0.37092,0.7575778 0,0.3173017 -0.11869,0.5695286 -0.35687,0.7558836 -0.23728,0.1863051 -0.55896,0.2794826 -0.96416,0.2794826 l -1.25152,0 0,0 -0.44825,0 z m 0.89824,-2.9355391 0,0.751449 0,0 0.49743,0 c 0.12572,0 0.22502,-0.033385 0.29887,-0.1001534 0.0738,-0.066819 0.11071,-0.1582024 0.11071,-0.2733538 0,-0.1159985 -0.0369,-0.2082791 -0.11071,-0.2759947 -0.0738,-0.067666 -0.17315,-0.1019471 -0.29887,-0.1019471 l -0.49743,0 z m 0,1.3825146 0,0.8912153 0,0 0.70576,0 c 0.14679,0 0.26189,-0.039563 0.34715,-0.1195363 0.0853,-0.079973 0.12746,-0.1880989 0.12746,-0.3234305 0,-0.1371254 -0.0483,-0.2460982 -0.14415,-0.3269682 -0.0967,-0.08082 -0.22587,-0.1212803 -0.38936,-0.1212803 l -0.64686,0 z"
     id="path2913"
     style="fill:#ffffff;fill-opacity:1;fill-rule:nonzero" /><path
     d="m 116.85359,-6.585571 0,-2.4310354 0,0 0.38148,0 0.38317,0 0,0 0,2.4310354 0,0 -0.38143,0 -0.38322,0 z m 0.38148,-3.636015 c 0.11948,0 0.22148,0.04131 0.3032,0.123922 0.0826,0.08177 0.12392,0.1837136 0.12392,0.3032499 0,0.1203833 -0.0413,0.2223304 -0.12392,0.3040974 -0.0817,0.082614 -0.18372,0.123921 -0.3032,0.123921 -0.12044,0 -0.22238,-0.041307 -0.3041,-0.123921 -0.0827,-0.081767 -0.12397,-0.1837141 -0.12397,-0.3040974 0,-0.1195363 0.0413,-0.2214839 0.12397,-0.3032499 0.0817,-0.08262 0.18366,-0.123922 0.3041,-0.123922 z"
     id="path2915"
     style="fill:#ffffff;fill-opacity:1;fill-rule:nonzero" /><path
     d="m 119.5794,-6.5310597 c -0.40166,0 -0.73032,-0.1177922 -0.98609,-0.3542239 -0.25576,-0.2364316 -0.38412,-0.540529 -0.38412,-0.9131891 0,-0.3726103 0.12836,-0.6776046 0.38412,-0.9157802 0.25577,-0.2381756 0.58443,-0.3568648 0.98609,-0.3568648 0.40345,0 0.73217,0.1186892 0.98788,0.3568648 0.25577,0.2381756 0.38412,0.5431699 0.38412,0.9157802 0,0.3726601 -0.12835,0.6767575 -0.38412,0.9131891 -0.25571,0.2364317 -0.58443,0.3542239 -0.98788,0.3542239 z m 0,-0.4535301 c 0.16966,0 0.30589,-0.074692 0.40869,-0.2241243 0.10284,-0.1494327 0.15471,-0.3463013 0.15471,-0.5897586 0,-0.2452013 -0.0519,-0.4438139 -0.15471,-0.5940937 -0.1028,-0.1503296 -0.23903,-0.2250211 -0.40869,-0.2250211 -0.16872,0 -0.3041,0.074692 -0.40689,0.2250211 -0.10284,0.1502798 -0.15472,0.3488924 -0.15472,0.5940937 0,0.2434573 0.0519,0.4403259 0.15472,0.5897586 0.10279,0.1494328 0.23817,0.2241243 0.40689,0.2241243 z"
     id="path2917"
     style="fill:#ffffff;fill-opacity:1;fill-rule:nonzero" /><path
     d="m 121.55197,-6.585571 0,-2.4310354 0,0 0.38148,0 0.38318,0 0,0 0,0.7031163 0,0 0,0 c 0.0773,-0.1599464 0.1573,-0.2944309 0.23992,-0.4043006 0.17494,-0.2355347 0.36035,-0.353327 0.55637,-0.353327 0.065,0 0.13533,0.017589 0.21092,0.05187 0.0756,0.034281 0.17051,0.091434 0.28566,0.1722537 l -0.20569,0.6697319 c -0.11161,-0.066769 -0.20215,-0.1133577 -0.27066,-0.1406133 -0.0686,-0.026359 -0.13274,-0.039563 -0.19074,-0.039563 -0.13359,0 -0.25312,0.06064 -0.35771,0.1828172 -0.10459,0.1221771 -0.19423,0.3032006 -0.26807,0.54317 l 0,0 0,1.0458798 0,0 -0.38143,0 -0.38323,0 z"
     id="path2919"
     style="fill:#ffffff;fill-opacity:1;fill-rule:nonzero" /><path
     d="m 125.21205,-6.5310597 c -0.40166,0 -0.73032,-0.1177922 -0.98608,-0.3542239 -0.25577,-0.2364316 -0.38412,-0.540529 -0.38412,-0.9131891 0,-0.3726103 0.12835,-0.6776046 0.38412,-0.9157802 0.25576,-0.2381756 0.58442,-0.3568648 0.98608,-0.3568648 0.40346,0 0.73217,0.1186892 0.98789,0.3568648 0.25576,0.2381756 0.38412,0.5431699 0.38412,0.9157802 0,0.3726601 -0.12836,0.6767575 -0.38412,0.9131891 -0.25572,0.2364317 -0.58443,0.3542239 -0.98789,0.3542239 z m 0,-0.4535301 c 0.16967,0 0.3059,-0.074692 0.40869,-0.2241243 0.10284,-0.1494327 0.15471,-0.3463013 0.15471,-0.5897586 0,-0.2452013 -0.0519,-0.4438139 -0.15471,-0.5940937 -0.10279,-0.1503296 -0.23902,-0.2250211 -0.40869,-0.2250211 -0.16871,0 -0.30409,0.074692 -0.40689,0.2250211 -0.10284,0.1502798 -0.15471,0.3488924 -0.15471,0.5940937 0,0.2434573 0.0519,0.4403259 0.15471,0.5897586 0.1028,0.1494328 0.23818,0.2241243 0.40689,0.2241243 z"
     id="path2921"
     style="fill:#ffffff;fill-opacity:1;fill-rule:nonzero" /><path
     d="m 127.15388,-10.182919 0,0 0.38143,0 0.38323,0 0,0 0,1.3025411 0,0 0.12128,-0.058896 c 0.19248,-0.087896 0.37176,-0.1318436 0.53788,-0.1318436 0.33838,0 0.61523,0.1186892 0.83058,0.3568648 0.2153,0.2381756 0.32343,0.5431699 0.32343,0.9157802 0,0.3726601 -0.10813,0.6767575 -0.32343,0.9131891 -0.21535,0.2364317 -0.4922,0.3542239 -0.83058,0.3542239 -0.15645,0 -0.33045,-0.046589 -0.52294,-0.1397662 l -0.13622,-0.072051 0,0 0,0.1573055 0,0 -0.76466,0 0,0 0,-3.5973478 z m 1.24893,3.1341513 c 0.17051,0 0.30674,-0.068513 0.40953,-0.2065351 0.10285,-0.1370756 0.15472,-0.3181488 0.15472,-0.5431699 0,-0.2267153 -0.0519,-0.4095325 -0.15472,-0.5475548 -0.10279,-0.1379724 -0.23902,-0.2073822 -0.40953,-0.2073822 -0.0958,0 -0.19602,0.021077 -0.29882,0.064128 -0.0668,0.027256 -0.1292,0.063281 -0.18545,0.1081257 l 0,0 0,1.1293908 0,0 c 0.0615,0.050974 0.1292,0.094025 0.20125,0.1283059 0.10284,0.050077 0.19687,0.074692 0.28302,0.074692 z"
     id="path2923"
     style="fill:#ffffff;fill-opacity:1;fill-rule:nonzero" /><path
     d="m 131.55575,-6.5310597 c -0.40166,0 -0.73033,-0.1177922 -0.98609,-0.3542239 -0.25576,-0.2364316 -0.38412,-0.540529 -0.38412,-0.9131891 0,-0.3726103 0.12836,-0.6776046 0.38412,-0.9157802 0.25576,-0.2381756 0.58443,-0.3568648 0.98609,-0.3568648 0.40345,0 0.73216,0.1186892 0.98788,0.3568648 0.25576,0.2381756 0.38412,0.5431699 0.38412,0.9157802 0,0.3726601 -0.12836,0.6767575 -0.38412,0.9131891 -0.25572,0.2364317 -0.58443,0.3542239 -0.98788,0.3542239 z m 0,-0.4535301 c 0.16966,0 0.30589,-0.074692 0.40868,-0.2241243 0.10285,-0.1494327 0.15472,-0.3463013 0.15472,-0.5897586 0,-0.2452013 -0.0519,-0.4438139 -0.15472,-0.5940937 -0.10279,-0.1503296 -0.23902,-0.2250211 -0.40868,-0.2250211 -0.16872,0 -0.3041,0.074692 -0.40689,0.2250211 -0.10285,0.1502798 -0.15472,0.3488924 -0.15472,0.5940937 0,0.2434573 0.0519,0.4403259 0.15472,0.5897586 0.10279,0.1494328 0.23817,0.2241243 0.40689,0.2241243 z"
     id="path2925"
     style="fill:#ffffff;fill-opacity:1;fill-rule:nonzero" /><path
     d="m 135.2536,-6.6646473 c -0.16344,0.088743 -0.3911,0.1335876 -0.68463,0.1335876 -0.31292,0 -0.55194,-0.080023 -0.71722,-0.2399693 -0.16608,-0.1590495 -0.24869,-0.3893524 -0.24869,-0.689912 l 0,-1.0380072 0,0 -0.34804,0 0,-0.1546646 1.03531,-1.1408013 0.0773,0 0,0.7778077 0,0 0.88594,0 0,0.5176582 -0.88594,0 0,0 0,0.9843927 c 0,0.1335876 0.0316,0.2355348 0.0949,0.3040975 0.0642,0.068563 0.1582,0.102844 0.28391,0.102844 0.22149,0 0.3902,-0.042204 0.5071,-0.1265619 l 0,0.5695286 z"
     id="path2927"
     style="fill:#ffffff;fill-opacity:1;fill-rule:nonzero" /><path
     d="m 135.73648,-6.585571 0,-2.4310354 0,0 0.38148,0 0.38317,0 0,0 0,2.4310354 0,0 -0.38143,0 -0.38322,0 z m 0.38148,-3.636015 c 0.11948,0 0.22148,0.04131 0.3032,0.123922 0.0826,0.08177 0.12392,0.1837136 0.12392,0.3032499 0,0.1203833 -0.0413,0.2223304 -0.12392,0.3040974 -0.0817,0.082614 -0.18372,0.123921 -0.3032,0.123921 -0.12044,0 -0.22238,-0.041307 -0.3041,-0.123921 -0.0827,-0.081767 -0.12397,-0.1837141 -0.12397,-0.3040974 0,-0.1195363 0.0413,-0.2214839 0.12397,-0.3032499 0.0817,-0.08262 0.18366,-0.123922 0.3041,-0.123922 z"
     id="path2929"
     style="fill:#ffffff;fill-opacity:1;fill-rule:nonzero" /><path
     d="m 139.33681,-6.7060041 c -0.19422,0.068563 -0.34804,0.1151514 -0.4623,0.1388693 -0.11425,0.023768 -0.23907,0.036075 -0.3744,0.036075 -0.40869,0 -0.74268,-0.1177922 -1.00283,-0.3542239 -0.26015,-0.2364316 -0.39025,-0.540529 -0.39025,-0.9131891 0,-0.3726103 0.1301,-0.6776046 0.39025,-0.9157802 0.26015,-0.2381756 0.59414,-0.3568648 1.00283,-0.3568648 0.12831,0 0.26105,0.014101 0.39728,0.041307 0.13707,0.027256 0.26802,0.067716 0.39548,0.1213301 l 0,0.5589652 c -0.10459,-0.055358 -0.20744,-0.094921 -0.30849,-0.1186393 -0.10194,-0.023768 -0.21709,-0.036075 -0.3454,-0.036075 -0.2162,0 -0.3911,0.065922 -0.52384,0.1969184 -0.13269,0.1317938 -0.19951,0.3049445 -0.19951,0.5194022 0,0.2144577 0.0642,0.3876084 0.19159,0.5176582 0.12836,0.1309966 0.29707,0.1960215 0.50625,0.1960215 0.12482,0 0.23907,-0.014051 0.34191,-0.042204 0.1037,-0.028103 0.23026,-0.08087 0.38143,-0.1582024 l 0,0.5686318 z"
     id="path2931"
     style="fill:#ffffff;fill-opacity:1;fill-rule:nonzero" /><path
     d="m 141.59764,-8.3345671 c -0.16169,-0.095818 -0.30933,-0.1670219 -0.44382,-0.2136107 -0.13358,-0.046539 -0.2575,-0.06941 -0.37091,-0.06941 -0.0853,0 -0.15467,0.015845 -0.20564,0.047486 -0.0519,0.03164 -0.0773,0.074691 -0.0773,0.127409 0,0.043051 0.0246,0.081767 0.0747,0.1159985 0.0483,0.034281 0.15292,0.085255 0.31466,0.1520736 0.31197,0.1292028 0.52817,0.2548679 0.64686,0.3787889 0.116,0.1239211 0.174,0.2847644 0.174,0.4842738 0,0.2540208 -0.0835,0.4473516 -0.25138,0.580989 -0.16697,0.1326907 -0.41128,0.1995094 -0.73212,0.1995094 -0.13269,0 -0.25835,-0.012307 -0.37789,-0.036075 -0.11953,-0.023718 -0.28476,-0.070307 -0.49573,-0.1388693 l 0,-0.5378384 c 0.1723,0.073795 0.31202,0.1239211 0.42189,0.1511269 0.10897,0.027256 0.22761,0.041307 0.35681,0.041307 0.11341,0 0.20395,-0.015795 0.27246,-0.046539 0.0695,-0.030793 0.10374,-0.0721 0.10374,-0.123074 0,-0.062384 -0.0255,-0.1125105 -0.0756,-0.1520238 -0.0483,-0.039563 -0.15207,-0.092281 -0.31202,-0.1573553 -0.31202,-0.1309468 -0.52648,-0.250483 -0.64512,-0.3585589 -0.11863,-0.1063818 -0.17843,-0.2373286 -0.17843,-0.393787 0,-0.2575087 0.0888,-0.4534804 0.26633,-0.587068 0.17843,-0.1344845 0.43684,-0.2013032 0.77696,-0.2013032 0.12392,0 0.23818,0.013204 0.34541,0.039563 0.10633,0.027256 0.24345,0.076485 0.41217,0.1485358 l 0,0.5484517 z"
     id="path2933"
     style="fill:#ffffff;fill-opacity:1;fill-rule:nonzero" /><polygon
     transform="matrix(0.49827531,0,0,0.49827531,93.35268,-11.759313)"
     points="46.7446,23.3521 46.7446,23.9977 46.7446,24.6486 46.7446,24.6486 41.2413,24.6486 41.2413,24.6486 41.2413,17.429 41.2413,17.429 42.1409,17.429 43.044,17.429 43.044,17.429 43.044,23.3521 43.044,23.3521 46.7446,23.3521 "
     id="polygon2935"
     style="fill:#ffffff;fill-opacity:1;fill-rule:nonzero" /><path
     d="m 117.66687,0.57698712 c -0.19861,0 -0.3621,-0.0571522 -0.48866,-0.1714067 -0.12746,-0.11425453 -0.19074,-0.26104644 -0.19074,-0.44122279 0,-0.18017635 0.0598,-0.33484101 0.18018,-0.46229983 0.12043,-0.12830589 0.30061,-0.23114992 0.54053,-0.31022621 l 0.73122,-0.23732849 0,0 0,-0.030744 c 0,-0.1221771 -0.036,-0.2144577 -0.10898,-0.2777387 -0.0729,-0.062384 -0.18102,-0.094024 -0.32343,-0.094024 -0.17135,0 -0.32607,0.03164 -0.46314,0.094921 -0.13803,0.064128 -0.27954,0.168716 -0.42543,0.314611 l 0,-0.6205022 c 0.19602,-0.1151016 0.36917,-0.1942277 0.51945,-0.2381756 0.14938,-0.043948 0.32433,-0.065922 0.52384,-0.065922 0.35681,0 0.6196,0.06064 0.78922,0.1819701 0.16876,0.1203833 0.25312,0.3102262 0.25312,0.5677349 l 0,1.12326204 c 0,0.04130702 0.0106,0.07469147 0.0308,0.10020316 0.0211,0.02546187 0.0483,0.03866617 0.0826,0.03866617 0.0431,0 0.0914,-0.01056344 0.14589,-0.03253738 0.0536,-0.02107704 0.1028,-0.0492296 0.14764,-0.08351094 l 0,0.42014574 c -0.0597,0.063281 -0.16174,0.11599849 -0.3041,0.15730552 -0.14235,0.041307 -0.29532,0.061537 -0.45791,0.061537 -0.12038,0 -0.21884,-0.0386662 -0.29618,-0.11604832 -0.0431,-0.0456918 -0.0747,-0.0993063 -0.0949,-0.15904948 l 0,0 c -0.0844,0.0597432 -0.17753,0.11251056 -0.27863,0.15645845 -0.18367,0.082614 -0.35418,0.12392106 -0.51238,0.12392106 z m 0.77253,-0.63809136 0,-0.60032209 0,0 -0.24167,0.0878958 c -0.14943,0.0527674 -0.26104,0.11604832 -0.33489,0.18899583 -0.0738,0.0729475 -0.11071,0.15640862 -0.11071,0.25133007 0,0.0738444 0.0237,0.13363743378 0.0712,0.17843238 0.0466,0.04569185 0.10897,0.06856269 0.1863,0.06856269 0.0773,0 0.15472,-0.01584516 0.2329,-0.04748564 0.0782,-0.03164048 0.1433,-0.07469147 0.19687,-0.127409 z"
     id="path2937"
     style="fill:#ffffff;fill-opacity:1;fill-rule:nonzero" /><path
     d="m 119.98664,-3.0748726 0,0 0.38143,0 0.38322,0 0,0 0,1.3025415 0,0 0.12128,-0.058896 c 0.19249,-0.087896 0.37177,-0.1318436 0.53789,-0.1318436 0.33838,0 0.61522,0.1186892 0.83058,0.3568648 0.2153,0.2381756 0.32343,0.5431699 0.32343,0.91578015 0,0.3726601 -0.10813,0.67675752 -0.32343,0.91318916 -0.21536,0.23643163 -0.4922,0.35422391 -0.83058,0.35422391 -0.15646,0 -0.33045,-0.0465887 -0.52294,-0.13976622 l -0.13623,-0.0720506 0,0 0,0.15730552 0,0 -0.76465,0 0,0 0,-3.59734842 z m 1.24893,3.13415168 c 0.17051,0 0.30674,-0.06851286 0.40953,-0.20653512 0.10284,-0.13707554 0.15472,-0.31814878 0.15472,-0.54316991 0,-0.22671527 -0.0519,-0.40953245 -0.15472,-0.54755475 -0.10279,-0.1379724 -0.23902,-0.2073822 -0.40953,-0.2073822 -0.0958,0 -0.19602,0.021077 -0.29882,0.064128 -0.0668,0.027256 -0.1292,0.063281 -0.18546,0.1081257 l 0,0 0,1.12939082 0,0 c 0.0615,0.05097356 0.12921,0.09402455 0.20126,0.12830589 0.10284,0.05007667 0.19687,0.07469147 0.28302,0.07469147 z"
     id="path2939"
     style="fill:#ffffff;fill-opacity:1;fill-rule:nonzero" /><path
     d="m 124.38851,0.57698712 c -0.40166,0 -0.73033,-0.11779228 -0.98609,-0.35422391 -0.25577,-0.23643164 -0.38412,-0.54052906 -0.38412,-0.91318916 0,-0.37261025 0.12835,-0.67760455 0.38412,-0.91578015 0.25576,-0.2381756 0.58443,-0.3568648 0.98609,-0.3568648 0.40345,0 0.73216,0.1186892 0.98788,0.3568648 0.25576,0.2381756 0.38412,0.5431699 0.38412,0.91578015 0,0.3726601 -0.12836,0.67675752 -0.38412,0.91318916 -0.25572,0.23643163 -0.58443,0.35422391 -0.98788,0.35422391 z m 0,-0.45353018 c 0.16966,0 0.30589,-0.07469147 0.40868,-0.22412424 0.10284,-0.14943276 0.15471,-0.34630134 0.15471,-0.58975865 0,-0.24520128 -0.0519,-0.44381385 -0.15471,-0.59409365 -0.10279,-0.1503297 -0.23902,-0.2250211 -0.40868,-0.2250211 -0.16872,0 -0.3041,0.074691 -0.4069,0.2250211 -0.10284,0.1502798 -0.15471,0.34889237 -0.15471,0.59409365 0,0.24345731 0.0519,0.44032589 0.15471,0.58975865 0.1028,0.14943277 0.23818,0.22412424 0.4069,0.22412424 z"
     id="path2941"
     style="fill:#ffffff;fill-opacity:1;fill-rule:nonzero" /><path
     d="m 126.36108,0.52247581 0,-2.43103541 0,0 0.38148,0 0.38317,0 0,0 0,0.7031163 0,0 0,0 c 0.0773,-0.1599464 0.15731,-0.2944309 0.23992,-0.4043006 0.17494,-0.2355347 0.36035,-0.353327 0.55637,-0.353327 0.065,0 0.13534,0.017589 0.21092,0.05187 0.0756,0.034281 0.17051,0.091434 0.28567,0.1722538 l -0.20569,0.6697319 c -0.11162,-0.066769 -0.20215,-0.1133577 -0.27067,-0.1406133 -0.0686,-0.026359 -0.13274,-0.039563 -0.19074,-0.039563 -0.13358,0 -0.25312,0.06064 -0.35771,0.1828172 -0.10459,0.12217712 -0.19422,0.30320054 -0.26807,0.54316993 l 0,0 0,1.04587988 0,0 -0.38143,0 -0.38322,0 z"
     id="path2943"
     style="fill:#ffffff;fill-opacity:1;fill-rule:nonzero" /><path
     d="m 129.30927,0.57698712 c -0.19861,0 -0.36209,-0.0571522 -0.48866,-0.1714067 -0.12745,-0.11425453 -0.19074,-0.26104644 -0.19074,-0.44122279 0,-0.18017635 0.0598,-0.33484101 0.18018,-0.46229983 0.12043,-0.12830589 0.30061,-0.23114992 0.54053,-0.31022621 l 0.73122,-0.23732849 0,0 0,-0.030744 c 0,-0.1221771 -0.036,-0.2144577 -0.10897,-0.2777387 -0.0729,-0.062384 -0.18103,-0.094024 -0.32343,-0.094024 -0.17136,0 -0.32608,0.03164 -0.46315,0.094921 -0.13802,0.064128 -0.27953,0.168716 -0.42543,0.314611 l 0,-0.6205022 c 0.19602,-0.1151016 0.36917,-0.1942277 0.51945,-0.2381756 0.14939,-0.043948 0.32433,-0.065922 0.52384,-0.065922 0.35681,0 0.61961,0.06064 0.78922,0.1819701 0.16876,0.1203833 0.25312,0.3102262 0.25312,0.5677349 l 0,1.12326204 c 0,0.04130702 0.0106,0.07469147 0.0308,0.10020316 0.0211,0.02546187 0.0483,0.03866617 0.0826,0.03866617 0.0431,0 0.0914,-0.01056344 0.14589,-0.03253738 0.0536,-0.02107704 0.1028,-0.0492296 0.14764,-0.08351094 l 0,0.42014574 c -0.0597,0.063281 -0.16174,0.11599849 -0.30409,0.15730552 -0.14236,0.041307 -0.29533,0.061537 -0.45792,0.061537 -0.12038,0 -0.21884,-0.0386662 -0.29617,-0.11604832 -0.043,-0.0456918 -0.0747,-0.0993063 -0.0949,-0.15904948 l 0,0 c -0.0844,0.0597432 -0.17753,0.11251056 -0.27863,0.15645845 -0.18367,0.082614 -0.35417,0.12392106 -0.51238,0.12392106 z m 0.77253,-0.63809136 0,-0.60032209 0,0 -0.24166,0.0878958 c -0.14944,0.0527674 -0.26105,0.11604832 -0.3349,0.18899583 -0.0738,0.0729475 -0.11071,0.15640862 -0.11071,0.25133007 0,0.0738444 0.0237,0.13363743378 0.0712,0.17843238 0.0466,0.04569185 0.10897,0.06856269 0.18631,0.06856269 0.0773,0 0.15471,-0.01584516 0.23289,-0.04748564 0.0782,-0.03164048 0.1433,-0.07469147 0.19687,-0.127409 z"
     id="path2945"
     style="fill:#ffffff;fill-opacity:1;fill-rule:nonzero" /><path
     d="m 133.38507,0.44339951 c -0.16344,0.0887428 -0.3911,0.13358761 -0.68464,0.13358761 -0.31291,0 -0.55193,-0.080023 -0.71721,-0.23996938 -0.16608,-0.15904948 -0.24869,-0.38935233 -0.24869,-0.689912 l 0,-1.03800714 0,0 -0.34805,0 0,-0.1546646 1.03532,-1.1408014 0.0773,0 0,0.7778078 0,0 0.88594,0 0,0.5176582 -0.88594,0 0,0 0,0.98439272 c 0,0.13358761 0.0316,0.23553474 0.0949,0.30409742 0.0642,0.06856268 0.15821,0.10284402378 0.28392,0.10284402378 0.22148,0 0.3902,-0.0422039138 0.5071,-0.12656192378 l 0,0.56952867 z"
     id="path2947"
     style="fill:#ffffff;fill-opacity:1;fill-rule:nonzero" /><path
     d="m 135.09664,0.57698712 c -0.40166,0 -0.73032,-0.11779228 -0.98609,-0.35422391 -0.25576,-0.23643164 -0.38412,-0.54052906 -0.38412,-0.91318916 0,-0.37261025 0.12836,-0.67760455 0.38412,-0.91578015 0.25577,-0.2381756 0.58443,-0.3568648 0.98609,-0.3568648 0.40345,0 0.73217,0.1186892 0.98788,0.3568648 0.25577,0.2381756 0.38412,0.5431699 0.38412,0.91578015 0,0.3726601 -0.12835,0.67675752 -0.38412,0.91318916 -0.25571,0.23643163 -0.58443,0.35422391 -0.98788,0.35422391 z m 0,-0.45353018 c 0.16966,0 0.30589,-0.07469147 0.40869,-0.22412424 0.10284,-0.14943276 0.15471,-0.34630134 0.15471,-0.58975865 0,-0.24520128 -0.0519,-0.44381385 -0.15471,-0.59409365 -0.1028,-0.1503297 -0.23903,-0.2250211 -0.40869,-0.2250211 -0.16872,0 -0.3041,0.074691 -0.40689,0.2250211 -0.10284,0.1502798 -0.15472,0.34889237 -0.15472,0.59409365 0,0.24345731 0.0519,0.44032589 0.15472,0.58975865 0.10279,0.14943277 0.23817,0.22412424 0.40689,0.22412424 z"
     id="path2949"
     style="fill:#ffffff;fill-opacity:1;fill-rule:nonzero" /><path
     d="m 137.06921,0.52247581 0,-2.43103541 0,0 0.38148,0 0.38318,0 0,0 0,0.7031163 0,0 0,0 c 0.0773,-0.1599464 0.1573,-0.2944309 0.23992,-0.4043006 0.17494,-0.2355347 0.36035,-0.353327 0.55637,-0.353327 0.065,0 0.13533,0.017589 0.21092,0.05187 0.0756,0.034281 0.17051,0.091434 0.28566,0.1722538 l -0.20569,0.6697319 c -0.11161,-0.066769 -0.20215,-0.1133577 -0.27066,-0.1406133 -0.0686,-0.026359 -0.13274,-0.039563 -0.19074,-0.039563 -0.13359,0 -0.25312,0.06064 -0.35771,0.1828172 -0.10459,0.12217712 -0.19423,0.30320054 -0.26807,0.54316993 l 0,0 0,1.04587988 0,0 -0.38143,0 -0.38323,0 z"
     id="path2951"
     style="fill:#ffffff;fill-opacity:1;fill-rule:nonzero" /><polygon
     transform="matrix(0.49827531,0,0,0.49827531,93.35268,-11.759313)"
     points="92.7617,19.7697 93.5749,19.7697 93.5749,19.7697 94.6403,22.4314 94.6403,22.4314 94.6403,22.4314 95.7233,19.7697 95.7233,19.7697 96.5206,19.7697 97.3231,19.7697 94.0723,26.9681 94.0723,26.9681 93.2821,26.9681 92.4901,26.9681 92.4901,26.9681 93.8977,23.8654 93.8977,23.8619 91.9486,19.7697 91.9486,19.7697 "
     id="polygon2953"
     style="fill:#ffffff;fill-opacity:1;fill-rule:nonzero" /><polygon
     transform="matrix(0.49827531,0,0,0.49827531,93.35268,-11.759313)"
     points="72.9919,32.9908 72.9919,34.5536 72.9919,34.5536 76.2956,34.5536 76.2956,35.1992 76.2956,35.85 76.2956,35.85 72.9919,35.85 72.9919,35.85 72.9919,37.6174 72.9919,37.6174 76.5126,37.6174 76.5126,37.6174 76.5126,38.263 76.5126,38.9139 76.5126,38.9139 71.1892,38.9139 71.1892,38.9139 71.1892,31.6943 71.1892,31.6943 76.5126,31.6943 76.5126,31.6943 76.5126,32.3399 76.5126,32.9908 76.5126,32.9908 72.9919,32.9908 "
     id="polygon2955"
     style="fill:#ffffff;fill-opacity:1;fill-rule:nonzero" /><path
     d="m 132.26569,7.6305226 0,-3.5973484 0,0 0.44825,0 0,0 0.97293,0 c 0.42099,0 0.75499,0.102844 1.00193,0.3076351 0.247,0.2056383 0.37092,0.4825298 0.37092,0.8305751 0,0.3471485 -0.12392,0.6230933 -0.37092,0.8270374 -0.24694,0.2047912 -0.58094,0.3067383 -1.00193,0.3067383 l -0.52294,-0.00264 0,0 0,1.3280034 0,0 -0.44825,0 -0.44999,0 z m 0.89824,-2.0750675 0,0 0.52294,0 c 0.13274,0 0.23733,-0.038666 0.31466,-0.1160484 0.0773,-0.077332 0.116,-0.1810234 0.116,-0.3119701 0,-0.1318437 -0.0387,-0.2373286 -0.116,-0.3155578 -0.0773,-0.078229 -0.18192,-0.1168954 -0.31466,-0.1168954 l -0.52294,0 0,0 0,0.8604717 z"
     id="path2957"
     style="fill:#ffffff;fill-opacity:1;fill-rule:nonzero" /><polygon
     transform="matrix(0.49827531,0,0,0.49827531,93.35268,-11.759313)"
     points="86.9032,34.6612 86.9032,34.6612 90.02,34.6612 90.02,35.3068 90.02,35.9576 90.02,35.9576 86.9032,35.9576 86.9032,35.9576 86.9032,38.9139 86.0036,38.9139 85.1005,38.9139 85.1005,31.6943 85.1005,31.6943 90.0711,31.6943 90.0711,31.6943 90.0711,32.3399 90.0711,32.9908 90.0711,32.9908 86.9032,32.9908 86.9032,32.9908 "
     id="polygon2959"
     style="fill:#ffffff;fill-opacity:1;fill-rule:nonzero" /><polygon
     transform="matrix(0.49827531,0,0,0.49827531,93.35268,-11.759313)"
     points="97.1326,37.6174 97.1326,38.263 97.1326,38.9139 97.1326,38.9139 91.6293,38.9139 91.6293,38.9139 91.6293,31.6943 91.6293,31.6943 92.5289,31.6943 93.432,31.6943 93.432,31.6943 93.432,37.6174 93.432,37.6174 97.1326,37.6174 "
     id="polygon2961"
     style="fill:#ffffff;fill-opacity:1;fill-rule:nonzero" /><path
     style="fill:#ffffff;fill-opacity:1"
     id="_152286840"
     d="m 111.01968,-0.84917647 c 0,-1.14792663 -0.26738,-2.23312043 -0.74288,-3.19743263 l -0.003,0.00757 -0.034,0.081667 -0.0388,0.076087 -0.0434,0.071104 -0.0483,0.065772 -0.0526,0.060341 -0.0566,0.05486 -0.0602,0.049628 -0.0634,0.044496 -0.0661,0.039712 -0.0684,0.034979 -0.0704,0.031292 -0.0727,0.027704 -0.0746,0.024615 -0.0763,0.021824 -0.0779,0.019732 -0.0799,0.017739 -0.0319,0.00638 -0.0163,0.017689 c -0.018,0.019831 -0.0366,0.039214 -0.0555,0.058348 -0.0172,0.01744 -0.0347,0.03463 -0.0525,0.051472 -0.0162,0.015297 -0.0326,0.030295 -0.0493,0.044994 -0.0149,0.013204 -0.0301,0.026159 -0.0455,0.038766 -0.0137,0.011161 -0.0276,0.022123 -0.0416,0.032836 -0.0122,0.00927 -0.0246,0.018386 -0.0371,0.027305 -0.0156,0.011012 -0.0314,0.021675 -0.0476,0.03184 0.0173,0.041008 0.034,0.082215 0.0503,0.1236719 0.0162,0.041407 0.032,0.083063 0.0472,0.1248678 0.009,-0.00179 0.0188,-0.00339 0.0282,-0.00493 0.009,-0.00144 0.0188,-0.00289 0.0284,-0.00409 0.0152,-0.00209 0.0304,-0.00379 0.0457,-0.00528 0.0175,-0.00169 0.0351,-0.00309 0.0528,-0.00419 0.0199,-0.0012 0.0398,-0.00209 0.0598,-0.00259 0.0222,-5.481e-4 0.0444,-7.474e-4 0.0667,-5.481e-4 0.0245,2.491e-4 0.049,8.969e-4 0.0735,0.00199 0.0268,0.0012 0.0536,0.00284 0.0803,0.00503 0.029,0.00239 0.058,0.00548 0.087,0.00857 0.0313,0.00329 0.0625,0.00668 0.0934,0.012457 0.004,7.972e-4 0.008,0.00159 0.0119,0.00274 0.004,0.0011 0.007,0.00254 0.0109,0.00419 0.004,0.00164 0.007,0.00354 0.0102,0.00568 0.003,0.00214 0.006,0.00448 0.009,0.00703 0.003,0.00254 0.006,0.00533 0.008,0.00822 0.003,0.00294 0.005,0.00608 0.007,0.00932 0.004,0.00638 0.007,0.013453 0.01,0.020579 10e-4,0.00324 0.002,0.00648 0.003,0.00972 9.9e-4,0.00319 0.002,0.00648 0.003,0.00967 9.9e-4,0.00329 0.002,0.00653 0.003,0.00977 10e-4,0.00319 0.002,0.00643 0.003,0.00972 0.002,0.00727 0.003,0.014849 0.004,0.022472 1e-4,0.00384 -10e-5,0.00772 -5.4e-4,0.01161 -5e-4,0.00384 -10e-4,0.00767 -0.002,0.011411 -9.9e-4,0.00379 -0.002,0.00747 -0.004,0.011062 -0.002,0.00359 -0.003,0.00708 -0.005,0.010414 -0.002,0.00334 -0.004,0.00658 -0.007,0.00962 -0.003,0.00314 -0.005,0.00603 -0.008,0.00897 -0.0223,0.022223 -0.0461,0.042603 -0.0701,0.062932 -0.0222,0.018885 -0.0444,0.037719 -0.067,0.056056 -0.0209,0.016842 -0.042,0.033285 -0.0635,0.049379 -0.0196,0.014699 -0.0396,0.029099 -0.0597,0.043101 -0.0182,0.012706 -0.0367,0.025113 -0.0554,0.037122 -0.0167,0.010813 -0.0337,0.021326 -0.0509,0.031541 -0.0152,0.00902 -0.0305,0.017788 -0.0459,0.026309 -0.0135,0.00737 -0.0271,0.0145 -0.0408,0.021426 -0.009,0.00429 -0.0171,0.00852 -0.0257,0.012557 -0.009,0.00409 -0.0173,0.00802 -0.0261,0.011859 0.0109,0.043101 0.0218,0.086301 0.0312,0.1297509 l 0.0282,0.1304983 c 0,0 0.0382,-7.973e-4 0.0572,-4.983e-4 0.0154,2.99e-4 0.0307,8.471e-4 0.0461,0.00164 0.0176,9.467e-4 0.0352,0.00219 0.0528,0.00379 0.0199,0.00169 0.0397,0.00384 0.0595,0.00628 0.0221,0.00279 0.0441,0.00588 0.0661,0.00942 0.0242,0.00389 0.0484,0.00822 0.0724,0.012955 0.0263,0.00513 0.0526,0.010763 0.0787,0.016941 0.0284,0.00673 0.0565,0.014051 0.0848,0.021426 0.0303,0.00792 0.0608,0.015945 0.0904,0.026309 0.004,0.0013 0.008,0.00269 0.0114,0.00443 0.004,0.00164 0.007,0.00359 0.0102,0.00573 0.003,0.00219 0.006,0.00453 0.009,0.00718 0.003,0.00254 0.006,0.00533 0.008,0.00832 0.003,0.00294 0.005,0.00608 0.007,0.00937 0.002,0.00329 0.004,0.00668 0.006,0.010215 0.003,0.00698 0.005,0.01435 0.006,0.021824 6e-4,0.00334 0.001,0.00668 0.002,0.010015 5e-4,0.00334 10e-4,0.00668 0.002,0.010065 5e-4,0.00334 9.5e-4,0.00668 0.001,0.010065 5.5e-4,0.00334 10e-4,0.00668 0.002,0.010065 9e-4,0.00747 0.001,0.015197 2e-4,0.022721 -4.5e-4,0.00389 -0.001,0.00767 -0.002,0.01141 -10e-4,0.00374 -0.002,0.00742 -0.004,0.011012 -0.002,0.00359 -0.003,0.00703 -0.005,0.010364 -0.002,0.00334 -0.004,0.00653 -0.007,0.00952 -0.002,0.00304 -0.005,0.00588 -0.008,0.00847 -0.003,0.00274 -0.006,0.00518 -0.01,0.00762 -0.0253,0.018685 -0.052,0.035278 -0.0787,0.051821 -0.0248,0.015347 -0.0495,0.030694 -0.0746,0.045443 -0.0232,0.013603 -0.0465,0.026708 -0.0703,0.039364 -0.0216,0.01161 -0.0433,0.022871 -0.0654,0.033733 -0.02,0.00987 -0.0401,0.019333 -0.0604,0.028451 -0.0181,0.00817 -0.0365,0.016045 -0.0549,0.023568 -0.0164,0.00668 -0.0328,0.013055 -0.0494,0.019184 -0.0144,0.00523 -0.0289,0.010314 -0.0435,0.015098 -0.009,0.00299 -0.0182,0.00583 -0.0274,0.00862 -0.009,0.00269 -0.0183,0.00533 -0.0275,0.00782 0.004,0.044247 0.009,0.088543 0.0116,0.1329398 l 0.008,0.1332388 c 0,0 0.0379,0.00488 0.0567,0.00807 0.0152,0.00254 0.0302,0.00538 0.0452,0.00847 0.0173,0.00354 0.0345,0.00742 0.0517,0.01156 0.0193,0.00473 0.0387,0.00972 0.0578,0.015147 0.0214,0.00598 0.0428,0.012407 0.0639,0.019134 0.0234,0.00747 0.0466,0.015397 0.0697,0.023618 0.0253,0.00902 0.0504,0.018486 0.0753,0.028452 0.0271,0.010862 0.0538,0.0223227 0.0806,0.0338329 0.0289,0.0124071 0.0577,0.0247643 0.0856,0.0395132 0.004,0.001893 0.007,0.003787 0.0106,0.006079 0.003,0.002143 0.006,0.004584 0.009,0.007225 0.003,0.002591 0.006,0.005431 0.008,0.008371 0.002,0.00299 0.005,0.006129 0.007,0.009467 0.002,0.003289 0.004,0.006727 0.005,0.0103143 0.002,0.003588 0.003,0.007225 0.004,0.0109621 0.002,0.007275 0.003,0.0149483 0.003,0.022522 10e-5,0.003388 5e-5,0.006777 0,0.0101648 0,0.003338 0,0.006777 0,0.0101648 0,0.003338 0,0.006777 0,0.010115 5e-5,0.003438 10e-5,0.006777 0,0.0101648 -2.5e-4,0.007574 -0.001,0.0152472 -0.003,0.022522 -0.001,0.003787 -0.002,0.007374 -0.004,0.0109621 -0.002,0.003538 -0.003,0.007026 -0.005,0.0103143 -0.002,0.003338 -0.004,0.006478 -0.007,0.009467 -0.002,0.00299 -0.005,0.00583 -0.008,0.008421 -0.003,0.002641 -0.006,0.005033 -0.009,0.007175 -0.003,0.002242 -0.007,0.004235 -0.0106,0.006129 -0.0278,0.0146991 -0.0567,0.0271062 -0.0856,0.0394634 -0.0267,0.0115102 -0.0535,0.0229705 -0.0806,0.0337831 -0.0249,0.0100153 -0.05,0.0194826 -0.0753,0.0285013 -0.0231,0.008271 -0.0463,0.0161441 -0.0697,0.0236182 -0.0211,0.006777 -0.0425,0.0131545 -0.0639,0.0191338 -0.0191,0.005381 -0.0385,0.0104638 -0.0578,0.0151476 -0.0172,0.004136 -0.0344,0.008022 -0.0517,0.01156 -0.015,0.003089 -0.0301,0.005929 -0.0452,0.008471 -0.009,0.001594 -0.0189,0.003089 -0.0283,0.004435 -0.009,0.001296 -0.0189,0.002541 -0.0284,0.003637 -0.002,0.0444462 -0.005,0.0888923 -0.008,0.13318899 l -0.0116,0.13298968 c -2.5e-4,0.002093 0.0309,0.009069 0.0501,0.0147988 l 0.0593,-0.002192 0.0851,8.4707e-4 0.0847,0.005033 0.084,0.009069 0.0832,0.0134534 0.0819,0.0178382 0.08,0.0223227 0.0784,0.0269069 0.0762,0.0319395 0.0735,0.0369222 0.0705,0.04220392 0.0671,0.04758529 0.063,0.05336529 0.0584,0.05909545 0.0509,0.0624339 0.0441,0.061238 0.04,0.0597432 0.0377,0.0603411 0.0351,0.0609391 0.0326,0.061238 0.03,0.0618858 0.0275,0.0623342 0.0247,0.0626332 0.0221,0.0628823 0.0193,0.0634305 0.0167,0.0637294 0.0129,0.0611882 c 0.13633,-0.55512852 0.20908,-1.13522064 0.20908,-1.7324036 z m -2.14966,-5.14837983 c -0.12781,-0.1263626 -0.26025,-0.2478919 -0.39713,-0.3645382 l -0.004,0.00399 -0.0968,0.090885 -0.0984,0.088195 -0.0992,0.086002 -0.0999,0.08386 -0.0998,0.081717 -0.0992,0.079824 -0.098,0.078229 -0.0966,0.076685 -0.0188,0.015048 c 0.004,0.00394 0.008,0.00817 0.0114,0.012856 0.002,0.00319 0.004,0.00648 0.006,0.00997 0.002,0.00344 0.003,0.00698 0.005,0.010663 0.001,0.00364 0.002,0.00737 0.003,0.011211 8e-4,0.00384 0.001,0.00772 0.002,0.01161 2.5e-4,0.00384 2.5e-4,0.00777 -10e-5,0.01166 -3.5e-4,0.00404 -0.001,0.00807 -0.002,0.012058 -0.006,0.030893 -0.0142,0.061238 -0.0225,0.091533 -0.008,0.028053 -0.0154,0.056106 -0.0238,0.084059 -0.008,0.025661 -0.0159,0.051173 -0.0247,0.076585 -0.008,0.02322 -0.0162,0.04634 -0.025,0.06921 -0.008,0.020778 -0.0162,0.041457 -0.0249,0.061936 -0.008,0.018337 -0.0158,0.036623 -0.0243,0.054661 -0.007,0.015995 -0.0151,0.03189 -0.0232,0.047635 -0.007,0.013653 -0.0142,0.027256 -0.0216,0.040659 -0.009,0.016742 -0.0189,0.033235 -0.0291,0.049379 0.0667,0.058946 0.13194,0.1194865 0.19572,0.1815716 0.006,-0.00458 0.0126,-0.00892 0.0189,-0.013354 l 0.003,-0.070506 0.01,-0.097861 0.0171,-0.097662 0.0265,-0.096765 0.0386,-0.094573 0.0512,-0.086849 0.0765,-0.099107 0.0802,-0.087796 0.0855,-0.079176 0.0902,-0.070855 0.0946,-0.062334 0.0978,-0.053864 0.10081,-0.045592 0.10309,-0.03742 0.10499,-0.029299 0.10603,-0.021326 0.1008,-0.012806 z m -3.94694,-2.0023691 c -0.37281,-0.059195 -0.75509,-0.090387 -1.14454,-0.090387 -0.5783,0 -1.14055,0.068214 -1.67963,0.1963703 l 0.1001,0.033833 0.1304,0.060541 0.12776,0.076585 0.12143,0.091085 0.0595,0.050675 0.0542,0.048831 0.0518,0.050525 0.0497,0.052967 0.0476,0.056405 0.0454,0.060391 0.0435,0.065075 0.0418,0.070008 0.0407,0.075987 0.04,0.082714 0.0399,0.090337 0.0402,0.098958 0.0213,0.056006 c 0.003,-0.010065 0.006,-0.02018 0.009,-0.030195 0.009,-0.027754 0.0182,-0.055309 0.0277,-0.082863 0.0102,-0.029747 0.0204,-0.059444 0.033,-0.088294 0.002,-0.00374 0.003,-0.00742 0.005,-0.011012 0.002,-0.00334 0.004,-0.00663 0.007,-0.00967 0.002,-0.00309 0.005,-0.00598 0.008,-0.00867 0.003,-0.00274 0.006,-0.00523 0.009,-0.00752 0.003,-0.00229 0.006,-0.00434 0.01,-0.00623 0.003,-0.00184 0.007,-0.00344 0.0107,-0.00473 0.007,-0.00259 0.0147,-0.00404 0.0222,-0.00483 0.003,-3.488e-4 0.007,-5.481e-4 0.0101,-7.972e-4 0.003,-2.492e-4 0.007,-4.983e-4 0.0102,-7.973e-4 0.003,-1.993e-4 0.007,-4.484e-4 0.0102,-6.976e-4 0.003,-2.989e-4 0.007,-5.979e-4 0.0101,-7.474e-4 0.008,-3.986e-4 0.0152,0 0.0227,0.00145 0.004,7.973e-4 0.008,0.00189 0.0112,0.00314 0.004,0.0013 0.007,0.00284 0.0107,0.00468 0.003,0.00179 0.007,0.00384 0.01,0.00608 0.003,0.00224 0.006,0.00473 0.009,0.00742 0.003,0.00269 0.005,0.00553 0.008,0.00862 0.002,0.00319 0.005,0.00668 0.007,0.010115 0.0167,0.026608 0.0312,0.054511 0.0457,0.082315 0.0135,0.02586 0.0269,0.051721 0.0397,0.077831 0.0119,0.024117 0.0232,0.048432 0.0341,0.072948 0.01,0.022422 0.0195,0.044994 0.0288,0.067765 0.008,0.020579 0.0162,0.041407 0.0238,0.062284 0.007,0.018735 0.0133,0.03762 0.0194,0.056604 0.005,0.016792 0.0106,0.033683 0.0154,0.050625 0.004,0.014749 0.008,0.029647 0.0118,0.044546 0.005,0.018536 0.009,0.037221 0.0123,0.055956 0.0889,-0.00209 0.17799,-0.00209 0.26693,0 0.004,-0.018735 0.008,-0.03742 0.0123,-0.055956 0.004,-0.014898 0.008,-0.029797 0.0119,-0.044546 0.005,-0.016941 0.01,-0.033833 0.0154,-0.050625 0.006,-0.018984 0.0126,-0.037869 0.0194,-0.056604 0.008,-0.020878 0.0156,-0.041706 0.0239,-0.062284 0.009,-0.022771 0.0187,-0.045343 0.0287,-0.067765 0.0109,-0.024515 0.0222,-0.048831 0.034,-0.072948 0.0129,-0.02611 0.0263,-0.05197 0.0397,-0.077831 0.0145,-0.027804 0.029,-0.055707 0.0458,-0.082315 0.002,-0.00344 0.004,-0.00693 0.007,-0.010115 0.002,-0.00309 0.005,-0.00593 0.008,-0.00862 0.003,-0.00269 0.006,-0.00518 0.009,-0.00742 0.003,-0.00224 0.007,-0.00429 0.01,-0.00608 0.003,-0.00184 0.007,-0.00339 0.0107,-0.00468 0.004,-0.00125 0.007,-0.00234 0.0113,-0.00314 0.007,-0.00145 0.0151,-0.00184 0.0226,-0.00145 0.003,1.495e-4 0.007,4.485e-4 0.0102,7.474e-4 0.003,2.492e-4 0.007,4.983e-4 0.0102,6.976e-4 0.003,2.99e-4 0.007,5.481e-4 0.0101,7.973e-4 0.003,2.491e-4 0.007,4.484e-4 0.0101,7.972e-4 0.008,7.972e-4 0.0151,0.00224 0.0222,0.00483 0.004,0.0013 0.007,0.00289 0.0107,0.00473 0.003,0.00189 0.007,0.00394 0.01,0.00623 0.003,0.00229 0.006,0.00478 0.009,0.00752 0.003,0.00269 0.005,0.00558 0.008,0.00867 0.002,0.00304 0.005,0.00633 0.006,0.00967 0.002,0.00359 0.004,0.00727 0.005,0.011012 0.0126,0.02885 0.0228,0.058547 0.0329,0.088294 0.009,0.027555 0.0189,0.055109 0.0277,0.082863 0.008,0.025562 0.0157,0.051322 0.0228,0.077183 0.007,0.023668 0.0127,0.047436 0.0183,0.071253 0.005,0.021675 0.01,0.0434 0.0143,0.065174 0.004,0.019582 0.007,0.039164 0.0107,0.058846 0.003,0.01744 0.005,0.034929 0.008,0.052419 0.002,0.015247 0.004,0.030494 0.005,0.045791 0.002,0.018984 0.003,0.038118 0.004,0.057152 0.0835,0.010563 0.16682,0.02312 0.24978,0.03742 l 0.008,-0.040859 0.0131,-0.077482 0.012,-0.078279 0.0111,-0.078827 0.0101,-0.079574 0.01,-0.080123 0.009,-0.080422 0.008,-0.08077 0.008,-0.081319 0.008,-0.081418 0.007,-0.081618 0.007,-0.081717 0.007,-0.081917 0.008,-0.081767 0.008,-0.081717 0.008,-0.081468 0.009,-0.081368 0.01,-0.081069 0.0105,-0.080671 0.0114,-0.080222 0.0127,-0.08087 0.002,-0.00847 z m -4.3183,0.6409315 c -2.408266,1.1763283 -4.067373,3.6491192 -4.067373,6.50981743 0,3.43730237 2.39506,6.31519107 5.607393,7.05592717 l -0.0765,-0.038118 -0.13508,-0.088444 -0.12517,-0.102844 -0.1145,-0.1154504 -0.10339,-0.1264125 -0.0911,-0.1361786 -0.0782,-0.1441012 -0.0644,-0.1507781 -0.0496,-0.1560599 -0.0334,-0.1601457 -0.0162,-0.1626868 0.003,-0.1636835 0.0228,-0.1628862 0.0447,-0.1602453 0.0673,-0.1540169 -0.0328,-0.015447 c -0.0401,-0.019283 -0.08,-0.039065 -0.11959,-0.059344 -0.006,0.00772 -0.0115,0.015297 -0.0173,0.022771 -0.006,0.00752 -0.0119,0.014948 -0.0179,0.022323 -0.01,0.011809 -0.0198,0.023519 -0.03,0.034979 -0.0117,0.013204 -0.0237,0.026209 -0.0358,0.038965 -0.0138,0.01445 -0.0277,0.028651 -0.0421,0.042603 -0.0159,0.015546 -0.032,0.030793 -0.0485,0.045742 -0.0181,0.016543 -0.0366,0.032737 -0.0553,0.048582 -0.0204,0.01739 -0.0412,0.034381 -0.0623,0.050973 -0.0229,0.017938 -0.0462,0.035427 -0.0696,0.052867 -0.0252,0.018835 -0.0504,0.03762 -0.077,0.054362 -0.003,0.00209 -0.007,0.00429 -0.0105,0.00613 -0.003,0.00169 -0.007,0.00309 -0.0109,0.00429 -0.004,0.00115 -0.007,0.00209 -0.0113,0.00284 -0.004,6.478e-4 -0.008,9.966e-4 -0.0116,0.00115 -0.004,9.97e-5 -0.008,-4.98e-5 -0.0117,-4.484e-4 -0.004,-3.986e-4 -0.008,-0.0011 -0.0115,-0.00209 -0.007,-0.00184 -0.0144,-0.00483 -0.021,-0.00847 -0.003,-0.00159 -0.006,-0.00339 -0.009,-0.00508 -0.003,-0.00169 -0.006,-0.00339 -0.009,-0.00503 -0.003,-0.00169 -0.006,-0.00344 -0.009,-0.00508 -0.003,-0.00169 -0.006,-0.00334 -0.009,-0.00513 -0.006,-0.00399 -0.0126,-0.00857 -0.0179,-0.014002 -0.003,-0.00279 -0.005,-0.00573 -0.007,-0.00887 -0.002,-0.00319 -0.004,-0.00648 -0.006,-0.00992 -0.002,-0.00339 -0.003,-0.00693 -0.005,-0.010613 -10e-4,-0.00364 -0.002,-0.00742 -0.003,-0.011261 -8.5e-4,-0.00374 -10e-4,-0.00762 -0.002,-0.01151 -2.5e-4,-0.00404 -1.5e-4,-0.00812 0,-0.012208 0.001,-0.031391 0.005,-0.062633 0.009,-0.093825 0.003,-0.02895 0.007,-0.05785 0.0109,-0.08665 0.004,-0.026608 0.008,-0.053116 0.0131,-0.079475 0.004,-0.024116 0.009,-0.048183 0.0144,-0.07215 0.005,-0.021775 0.01,-0.0434 0.0153,-0.064925 0.005,-0.019333 0.0102,-0.038566 0.0159,-0.0577 0.005,-0.016941 0.0102,-0.033783 0.0157,-0.050525 0.005,-0.01455 0.01,-0.02905 0.0153,-0.04345 0.007,-0.017888 0.0138,-0.035677 0.0214,-0.053116 -0.0373,-0.024166 -0.0744,-0.048881 -0.11117,-0.073894 -0.0368,-0.025113 -0.0732,-0.050575 -0.10937,-0.076535 -0.007,0.00673 -0.0136,0.013404 -0.0206,0.019931 -0.007,0.00653 -0.0141,0.013005 -0.0211,0.019383 -0.0115,0.010264 -0.0231,0.02028 -0.0349,0.030146 -0.0135,0.011311 -0.0273,0.022372 -0.0412,0.033185 -0.0158,0.012208 -0.0318,0.024116 -0.048,0.035776 -0.018,0.013055 -0.0363,0.025711 -0.0548,0.038068 -0.0204,0.013653 -0.0411,0.026907 -0.0619,0.039812 -0.0228,0.014101 -0.0458,0.027854 -0.0692,0.041108 -0.0253,0.014301 -0.051,0.028103 -0.0766,0.041855 -0.0276,0.014898 -0.0554,0.029697 -0.0842,0.042304 -0.004,0.00164 -0.007,0.00319 -0.0114,0.00448 -0.004,0.0012 -0.007,0.00204 -0.01136,0.00264 -0.0038,5.979e-4 -0.0077,9.467e-4 -0.01161,0.0011 -0.0038,9.96e-5 -0.0078,-1.495e-4 -0.01161,-5.98e-4 -0.0039,-4.484e-4 -0.0077,-0.0012 -0.01151,-0.00214 -0.0037,-9.467e-4 -0.0074,-0.00224 -0.01101,-0.00379 -0.007,-0.00294 -0.01345,-0.00693 -0.01958,-0.01151 -0.0026,-0.00204 -0.0053,-0.00419 -0.0079,-0.00633 -0.0026,-0.00214 -0.0053,-0.00424 -0.008,-0.00633 -0.0026,-0.00214 -0.0053,-0.00424 -0.0079,-0.00633 -0.0026,-0.00209 -0.0053,-0.00419 -0.0079,-0.00638 -0.0058,-0.00488 -0.01116,-0.010364 -0.0156,-0.016493 -0.0023,-0.00319 -0.0043,-0.00648 -0.0061,-0.00992 -0.0018,-0.00349 -0.0034,-0.00708 -0.0047,-0.010713 -0.0013,-0.00369 -0.0023,-0.00742 -0.0031,-0.011211 -7.97e-4,-0.00384 -0.0012,-0.00772 -0.0015,-0.01156 -2.49e-4,-0.00389 -2.49e-4,-0.00782 5e-5,-0.01166 3.99e-4,-0.00404 0.0011,-0.00807 0.0019,-0.012108 0.0058,-0.030893 0.0141,-0.061238 0.02242,-0.091483 0.0078,-0.028103 0.01545,-0.056205 0.02387,-0.084109 0.0077,-0.025661 0.01594,-0.051173 0.02461,-0.076585 0.008,-0.02322 0.01629,-0.04629 0.02501,-0.06921 0.0079,-0.020778 0.01624,-0.041456 0.02491,-0.061886 0.0077,-0.018386 0.01585,-0.036623 0.02422,-0.054661 0.007,-0.016045 0.0151,-0.03194 0.0232,-0.047685 0.007,-0.013653 0.0141,-0.027256 0.0216,-0.040709 0.005,-0.00832 0.009,-0.016642 0.0142,-0.024864 0.005,-0.00817 0.01,-0.016393 0.0148,-0.024465 -0.0667,-0.058946 -0.131889,-0.1194864 -0.195619,-0.1815715 -0.0077,0.00563 -0.0155,0.011211 -0.02332,0.016642 -0.0079,0.00548 -0.01584,0.010813 -0.02377,0.016044 -0.01286,0.00842 -0.02586,0.016642 -0.03896,0.024565 -0.0151,0.00917 -0.03035,0.018038 -0.04579,0.026658 -0.01739,0.00977 -0.03498,0.019134 -0.05272,0.028302 -0.01978,0.010165 -0.03976,0.019981 -0.05984,0.029448 -0.02222,0.010414 -0.0446,0.020429 -0.06717,0.030096 -0.02466,0.010613 -0.04953,0.020728 -0.07454,0.030345 -0.02721,0.010414 -0.05461,0.02023 -0.08202,0.029996 -0.02965,0.010563 -0.05924,0.021127 -0.08959,0.029249 -0.004,0.00105 -0.0079,0.00209 -0.01191,0.00274 -0.0038,5.979e-4 -0.0078,8.969e-4 -0.01161,9.467e-4 -0.0039,4.98e-5 -0.0078,-1.993e-4 -0.01166,-6.478e-4 -0.0039,-4.982e-4 -0.0077,-0.0013 -0.01141,-0.00234 -0.0038,-9.966e-4 -0.0075,-0.00229 -0.01106,-0.00384 -0.0036,-0.00154 -0.007,-0.00334 -0.01036,-0.00533 -0.0064,-0.00399 -0.01231,-0.00897 -0.01759,-0.0144 -0.0024,-0.00239 -0.0047,-0.00488 -0.0069,-0.00737 -0.0023,-0.00254 -0.0046,-0.00498 -0.007,-0.00747 -0.0022,-0.00249 -0.0045,-0.00498 -0.0069,-0.00747 -0.0023,-0.00239 -0.0046,-0.00488 -0.0069,-0.00742 -0.005,-0.00568 -0.0095,-0.011909 -0.013,-0.018685 -0.0018,-0.00339 -0.0033,-0.00698 -0.0046,-0.010713 -0.0012,-0.00369 -0.0022,-0.00742 -0.003,-0.011211 -7.48e-4,-0.00384 -0.0012,-0.00772 -0.0014,-0.01161 -2e-4,-0.00389 -1.5e-4,-0.00777 1.49e-4,-0.01166 3.49e-4,-0.00389 8.97e-4,-0.00772 0.0018,-0.01156 9.47e-4,-0.00389 0.0022,-0.00782 0.0036,-0.01166 0.01036,-0.029647 0.02312,-0.058398 0.03588,-0.087099 0.01181,-0.026658 0.02362,-0.053266 0.03607,-0.079575 0.01141,-0.024266 0.02342,-0.048283 0.03578,-0.0721 0.01131,-0.021775 0.02302,-0.04335 0.03508,-0.064726 0.01091,-0.019333 0.02217,-0.038517 0.03383,-0.057501 0.01041,-0.016991 0.02108,-0.033833 0.03214,-0.050425 0.0098,-0.014749 0.01973,-0.029298 0.03,-0.043649 0.009,-0.012507 0.01804,-0.024814 0.02741,-0.037022 0.01166,-0.015148 0.02367,-0.029996 0.03612,-0.044496 -0.02855,-0.034082 -0.0567,-0.068563 -0.08446,-0.1033921 -0.02775,-0.03473 -0.05511,-0.069908 -0.08202,-0.1053354 -0.0084,0.00448 -0.01694,0.00882 -0.02551,0.013005 -0.0086,0.00424 -0.01719,0.00832 -0.02586,0.012307 -0.01395,0.00643 -0.028,0.012606 -0.0422,0.018486 -0.01624,0.00688 -0.03264,0.013354 -0.04923,0.019582 -0.01864,0.00703 -0.03742,0.013703 -0.05631,0.020081 -0.02113,0.00713 -0.0423,0.013852 -0.06358,0.02018 -0.02352,0.00708 -0.04719,0.013553 -0.07095,0.019782 -0.02591,0.00683 -0.05202,0.013105 -0.07818,0.018885 -0.0285,0.00628 -0.05705,0.011909 -0.0856,0.01744 -0.03084,0.00603 -0.06169,0.012108 -0.09298,0.015596 -0.004,4.485e-4 -0.0081,8.969e-4 -0.01216,8.969e-4 -0.0039,4.99e-5 -0.0078,-2.491e-4 -0.01166,-7.972e-4 -0.0038,-4.983e-4 -0.0077,-0.0013 -0.01141,-0.00239 -0.0037,-0.00105 -0.0074,-0.00239 -0.01096,-0.00399 -0.0035,-0.00154 -0.007,-0.00339 -0.01027,-0.00543 -0.0033,-0.00204 -0.0065,-0.00433 -0.0095,-0.00683 -0.0058,-0.00493 -0.01086,-0.010663 -0.0153,-0.016792 -0.002,-0.00279 -0.0038,-0.00558 -0.0057,-0.00842 -0.0019,-0.00274 -0.0038,-0.00558 -0.0058,-0.00837 -0.0019,-0.00279 -0.0038,-0.00558 -0.0057,-0.00842 -0.0019,-0.00274 -0.0039,-0.00553 -0.0057,-0.00837 -0.0041,-0.00638 -0.0076,-0.013204 -0.01006,-0.02038 -0.0012,-0.00369 -0.0022,-0.00747 -0.0029,-0.011311 -6.97e-4,-0.00384 -0.0011,-0.00767 -0.0013,-0.01156 -1.5e-4,-0.00394 0,-0.00777 3.49e-4,-0.01166 3.48e-4,-0.00389 0.001,-0.00772 0.0019,-0.01151 8.97e-4,-0.00384 0.002,-0.00752 0.0035,-0.011112 0.0015,-0.00379 0.0034,-0.00742 0.0053,-0.011012 0.0147,-0.027804 0.03154,-0.054362 0.04843,-0.08082 0.01565,-0.024565 0.03134,-0.04913 0.04754,-0.073346 0.01495,-0.022273 0.03034,-0.044247 0.04619,-0.065922 0.0144,-0.019782 0.02915,-0.039414 0.04425,-0.058747 0.0137,-0.017539 0.02775,-0.034829 0.04206,-0.051821 0.01281,-0.015297 0.02591,-0.030345 0.03931,-0.045094 0.01181,-0.013105 0.02387,-0.02601 0.03618,-0.038716 0.01071,-0.011012 0.02153,-0.021874 0.03259,-0.032488 0.0138,-0.013254 0.02785,-0.026159 0.04235,-0.038616 -0.02312,-0.037969 -0.04584,-0.076236 -0.06811,-0.1148027 -0.02222,-0.038517 -0.04405,-0.077332 -0.06532,-0.1163971 -0.0091,0.00314 -0.01814,0.00618 -0.02721,0.00907 -0.0091,0.00284 -0.01829,0.00568 -0.02741,0.00832 -0.01475,0.00429 -0.0296,0.00827 -0.0445,0.012008 -0.01709,0.00429 -0.03433,0.00827 -0.05157,0.012008 -0.01953,0.00414 -0.03911,0.00797 -0.05875,0.01146 -0.02187,0.00389 -0.04385,0.00737 -0.06587,0.010464 -0.02432,0.00344 -0.04863,0.00643 -0.073,0.00897 -0.02671,0.00284 -0.05347,0.00523 -0.08022,0.00703 -0.02905,0.00199 -0.05815,0.00319 -0.08725,0.00453 -0.03139,0.00135 -0.06283,0.00269 -0.09422,0.00149 -0.0041,-1.495e-4 -0.0082,-3.488e-4 -0.01221,-8.969e-4 -0.0038,-5.481e-4 -0.0076,-0.0014 -0.01136,-0.00249 -0.0037,-0.00115 -0.0074,-0.00249 -0.01091,-0.00409 -0.0035,-0.00159 -0.007,-0.00349 -0.01026,-0.00558 -0.0033,-0.00209 -0.0064,-0.00438 -0.0094,-0.00693 -0.0029,-0.00254 -0.0057,-0.00523 -0.0083,-0.00817 -0.005,-0.00568 -0.0091,-0.012158 -0.01256,-0.018885 -0.0016,-0.00304 -0.003,-0.00608 -0.0045,-0.00912 -0.0014,-0.00309 -0.0029,-0.00613 -0.0044,-0.00917 -0.0015,-0.00309 -0.0029,-0.00613 -0.0044,-0.00917 -0.0014,-0.00304 -0.003,-0.00608 -0.0044,-0.00917 -0.0031,-0.00693 -0.0056,-0.014151 -0.0069,-0.021625 -6.48e-4,-0.00384 -0.0011,-0.00772 -0.0012,-0.01166 -1.49e-4,-0.00384 5e-5,-0.00772 3.99e-4,-0.01161 4.48e-4,-0.00384 0.0011,-0.00767 0.002,-0.01151 9.46e-4,-0.00374 0.0022,-0.00747 0.0036,-0.011062 0.0015,-0.00359 0.0032,-0.00713 0.0052,-0.010464 0.002,-0.00349 0.0044,-0.00683 0.0069,-0.010065 0.01869,-0.025362 0.03926,-0.04908 0.05994,-0.072748 0.01913,-0.021974 0.03827,-0.043898 0.05795,-0.065374 0.01804,-0.019831 0.03657,-0.039214 0.05541,-0.058348 0.01729,-0.01744 0.03473,-0.03463 0.05257,-0.051522 0.01619,-0.015247 0.03259,-0.030245 0.04933,-0.044944 0.01495,-0.013204 0.03014,-0.02611 0.04559,-0.038766 0.0136,-0.011161 0.02745,-0.022123 0.04151,-0.032836 0.01221,-0.00927 0.02456,-0.018436 0.03712,-0.027256 0.0156,-0.011062 0.03144,-0.021725 0.04758,-0.03189 -0.01724,-0.041008 -0.03398,-0.082265 -0.05023,-0.1236719 -0.01629,-0.041407 -0.03204,-0.083013 -0.04729,-0.124818 -0.0094,0.00174 -0.01879,0.00339 -0.0282,0.00488 -0.0095,0.00149 -0.01893,0.00289 -0.0284,0.00414 -0.0152,0.00199 -0.03049,0.00374 -0.04574,0.00523 -0.01759,0.00169 -0.03518,0.00309 -0.05277,0.00419 -0.01993,0.00125 -0.03986,0.00204 -0.05979,0.00259 -0.02222,5.979e-4 -0.0445,7.972e-4 -0.06672,5.979e-4 -0.02451,-2.492e-4 -0.04908,-9.467e-4 -0.07354,-0.00204 -0.02686,-0.0012 -0.05362,-0.00284 -0.08032,-0.00503 -0.02905,-0.00239 -0.058,-0.00548 -0.087,-0.00857 -0.03124,-0.00334 -0.06248,-0.00668 -0.09338,-0.012507 -0.004,-7.972e-4 -0.008,-0.00154 -0.01191,-0.00274 -0.0037,-0.00105 -0.0074,-0.00249 -0.01091,-0.00414 -0.0035,-0.00164 -0.0069,-0.00354 -0.01021,-0.00568 -0.0032,-0.00209 -0.0064,-0.00448 -0.0093,-0.00703 -0.0029,-0.00254 -0.0057,-0.00528 -0.0083,-0.00827 -0.0025,-0.00289 -0.0049,-0.00603 -0.007,-0.00932 -0.0041,-0.00633 -0.0072,-0.013354 -0.0097,-0.0205289 -0.0011,-0.003239 -0.002,-0.006478 -0.003,-0.009716 -9.46e-4,-0.003239 -0.002,-0.006428 -0.0029,-0.009716 -0.001,-0.003239 -0.002,-0.006428 -0.003,-0.009716 -9.96e-4,-0.003189 -0.002,-0.006428 -0.0029,-0.009716 -0.0021,-0.007275 -0.0034,-0.0147988 -0.0036,-0.0224224 -1e-4,-0.003887 1e-4,-0.007773 5.98e-4,-0.0116098 4.48e-4,-0.003887 0.0011,-0.007723 0.0021,-0.0114603 9.47e-4,-0.003787 0.0022,-0.007474 0.0037,-0.0111115 0.0015,-0.003588 0.0033,-0.007026 0.0052,-0.0103641 0.002,-0.003388 0.0042,-0.006577 0.0067,-0.009617 0.0025,-0.003139 0.0054,-0.006029 0.0083,-0.008969 0.02222,-0.0221733 0.04614,-0.0426025 0.07011,-0.062982 0.02217,-0.0188348 0.0444,-0.0376198 0.06707,-0.0560061 0.02078,-0.0168417 0.042,-0.0333346 0.06348,-0.0493791 0.01968,-0.0146493 0.03951,-0.0290993 0.05964,-0.0431008 0.01829,-0.0126562 0.03677,-0.0250632 0.05546,-0.0371713 0.01674,-0.0107628 0.03368,-0.0213262 0.05082,-0.031491 0.0152,-0.009019 0.03054,-0.0177884 0.04604,-0.0262591 0.0134,-0.007424 0.02701,-0.0145496 0.04071,-0.0214757 0.01704,-0.00857 0.03438,-0.016742 0.05182,-0.0243657 -0.01091,-0.0431506 -0.02133,-0.0864508 -0.03124,-0.12980071 -0.0099,-0.0433998 -0.01928,-0.0868992 -0.02815,-0.13049831 -0.0096,3.488e-4 -0.01913,5.4811e-4 -0.02865,5.9793e-4 -0.0095,9.966e-5 -0.01908,4.983e-5 -0.02865,-9.965e-5 -0.01535,-2.9897e-4 -0.03069,-8.969e-4 -0.04599,-0.001644 -0.01764,-8.969e-4 -0.03528,-0.002192 -0.05282,-0.003737 -0.01988,-0.001744 -0.03976,-0.003887 -0.05954,-0.006328 -0.02207,-0.002741 -0.04405,-0.005929 -0.06607,-0.009417 -0.02422,-0.003887 -0.04833,-0.008222 -0.0724,-0.0129551 -0.02636,-0.005132 -0.05262,-0.0107627 -0.07868,-0.0169414 -0.02835,-0.006677 -0.05655,-0.0140015 -0.08471,-0.021376 -0.0304,-0.007972 -0.06079,-0.0159448 -0.09049,-0.0263588 -0.0038,-0.001296 -0.0077,-0.002691 -0.01141,-0.004435 -0.0035,-0.001644 -0.0069,-0.003637 -0.01011,-0.00573 -0.0032,-0.002192 -0.0063,-0.004584 -0.0093,-0.007175 -0.0029,-0.002541 -0.0056,-0.005332 -0.0082,-0.008321 -0.0025,-0.00294 -0.0048,-0.006079 -0.0069,-0.009368 -0.0021,-0.003289 -0.0039,-0.006727 -0.0055,-0.0102645 -0.0031,-0.006926 -0.0052,-0.0143005 -0.0065,-0.02177464 -5.97e-4,-0.0033384 -0.0011,-0.0066769 -0.0015,-0.01001533 -4.98e-4,-0.0033384 -9.97e-4,-0.0067267 -0.0015,-0.01006516 -4.98e-4,-0.0033384 -9.96e-4,-0.0067267 -0.0015,-0.01006516 -5.48e-4,-0.0033385 -0.0011,-0.0066769 -0.0015,-0.01001534 -9.46e-4,-0.007524 -0.0011,-0.01519739 -2.49e-4,-0.02277118 4.99e-4,-0.0038367 0.0012,-0.0076236 0.0023,-0.0114105 10e-4,-0.0037371 0.0023,-0.0074243 0.0039,-0.01101189 0.0015,-0.00353775 0.0033,-0.00702568 0.0053,-0.01036412 0.002,-0.00333845 0.0043,-0.00647758 0.0068,-0.00951706 0.0024,-0.0030395 0.0051,-0.0058796 0.008,-0.0085205 0.003,-0.0026907 0.0063,-0.0051322 0.0096,-0.0075738 0.02531,-0.01868533 0.05197,-0.03522807 0.07873,-0.05187046 0.02476,-0.01529705 0.04948,-0.03064393 0.07459,-0.04539288 0.02312,-0.0135531 0.04659,-0.0266577 0.07021,-0.0393637 0.02157,-0.0116098 0.0434,-0.0229207 0.06537,-0.0337332 0.01998,-0.009866 0.04011,-0.0193331 0.06039,-0.0284017 0.01819,-0.008222 0.03652,-0.0161441 0.05496,-0.0236183 0.01634,-0.006677 0.03284,-0.0130548 0.04938,-0.0191338 0.0144,-0.005332 0.0289,-0.0103641 0.0435,-0.0151974 0.01819,-0.005929 0.03647,-0.0114105 0.05491,-0.0163933 -0.0044,-0.044197 -0.0082,-0.0886432 -0.01156,-0.13298968 -0.0033,-0.0443465 -0.0061,-0.0887428 -0.0084,-0.13318899 -0.0095,-0.001096 -0.01899,-0.002342 -0.02845,-0.003637 -0.0094,-0.001345 -0.01888,-0.00284 -0.02825,-0.004435 -0.0152,-0.002541 -0.03025,-0.005381 -0.04534,-0.008471 -0.01729,-0.003538 -0.03453,-0.007424 -0.05162,-0.01156 -0.01943,-0.004684 -0.03872,-0.009766 -0.0579,-0.0151476 -0.02143,-0.005979 -0.0427,-0.0123572 -0.06393,-0.0191338 -0.02337,-0.007474 -0.04664,-0.0153469 -0.06971,-0.0236182 -0.02521,-0.009019 -0.05038,-0.018486 -0.07529,-0.0285013 -0.02701,-0.0108126 -0.05376,-0.0222729 -0.08057,-0.0337831 -0.02885,-0.0123572 -0.05775,-0.0247643 -0.08555,-0.0394634 -0.0036,-0.001893 -0.0072,-0.003887 -0.01056,-0.006129 -0.0032,-0.002143 -0.0063,-0.004534 -0.0092,-0.007175 -0.0029,-0.002591 -0.0056,-0.005431 -0.0081,-0.008421 -0.0024,-0.00299 -0.0047,-0.006129 -0.0068,-0.009467 -0.002,-0.003289 -0.0039,-0.006777 -0.0055,-0.0103143 -0.0015,-0.003588 -0.0029,-0.007175 -0.0039,-0.0109621 -0.0021,-0.007275 -0.003,-0.0149483 -0.0032,-0.022522 -1.5e-4,-0.003388 -5e-5,-0.006727 -5e-5,-0.0101648 0,-0.003338 0,-0.006777 0,-0.010115 0,-0.003388 0,-0.006826 0,-0.0101648 0,-0.003388 -1e-4,-0.006777 5e-5,-0.0101648 1.99e-4,-0.007574 0.0011,-0.0152472 0.0032,-0.022522 9.97e-4,-0.003737 0.0024,-0.007374 0.0039,-0.0109621 0.0016,-0.003588 0.0034,-0.007026 0.0055,-0.0103143 0.002,-0.003338 0.0043,-0.006478 0.0068,-0.009467 0.0025,-0.00294 0.0052,-0.00578 0.0081,-0.008371 0.0028,-0.002641 0.0059,-0.005082 0.0092,-0.007225 0.0034,-0.002292 0.007,-0.004186 0.01056,-0.006079 0.0278,-0.0147489 0.0567,-0.0271062 0.08555,-0.0395132 0.02681,-0.0115102 0.05357,-0.0229705 0.08057,-0.0338329 0.02491,-0.00997 0.05008,-0.019433 0.07529,-0.028452 0.02307,-0.00822 0.04634,-0.016144 0.06971,-0.023618 0.02123,-0.00673 0.0425,-0.013154 0.06393,-0.019134 0.01918,-0.00543 0.03847,-0.010414 0.0579,-0.015147 0.01709,-0.00414 0.03433,-0.00802 0.05162,-0.01156 0.0151,-0.00309 0.03015,-0.00593 0.04534,-0.00847 0.01878,-0.00319 0.03767,-0.00588 0.0567,-0.00807 0.0022,-0.044396 0.0051,-0.088842 0.0084,-0.1332388 0.0033,-0.044347 0.0072,-0.088693 0.01156,-0.1329398 -0.0092,-0.00249 -0.01844,-0.00513 -0.02756,-0.00782 -0.0092,-0.00279 -0.01824,-0.00563 -0.02736,-0.00862 -0.0146,-0.00478 -0.0291,-0.00987 -0.0435,-0.015098 -0.01654,-0.00613 -0.03303,-0.012507 -0.04938,-0.019184 -0.01844,-0.00752 -0.03677,-0.015397 -0.05496,-0.023568 -0.02028,-0.00912 -0.04041,-0.018586 -0.06039,-0.028451 -0.02197,-0.010862 -0.0438,-0.022123 -0.06537,-0.033733 -0.02362,-0.012656 -0.04709,-0.025761 -0.07021,-0.039364 -0.02511,-0.014749 -0.04983,-0.030096 -0.07459,-0.045443 -0.02676,-0.016543 -0.05342,-0.033135 -0.07873,-0.051821 -0.0033,-0.00244 -0.0066,-0.00488 -0.0096,-0.00762 -0.0029,-0.00259 -0.0055,-0.00543 -0.008,-0.00847 -0.0025,-0.00299 -0.0047,-0.00618 -0.0068,-0.00952 -0.002,-0.00334 -0.0038,-0.00678 -0.0053,-0.010364 -0.0015,-0.00359 -0.0028,-0.00727 -0.0039,-0.011012 -0.001,-0.00374 -0.0018,-0.00752 -0.0023,-0.01141 -8.97e-4,-0.00752 -6.97e-4,-0.015247 2.49e-4,-0.022721 3.99e-4,-0.00339 9.47e-4,-0.00673 0.0015,-0.010065 4.99e-4,-0.00339 9.97e-4,-0.00673 0.0015,-0.010065 5.48e-4,-0.00339 0.001,-0.00673 0.0015,-0.010065 4.48e-4,-0.00334 9.47e-4,-0.00668 0.0015,-0.010015 0.0013,-0.00747 0.0034,-0.014849 0.0065,-0.021824 0.0015,-0.00354 0.0034,-0.00693 0.0055,-0.010215 0.0021,-0.00329 0.0044,-0.00643 0.0069,-0.00937 0.0026,-0.00299 0.0053,-0.00578 0.0082,-0.00832 0.0029,-0.00264 0.006,-0.00498 0.0093,-0.00718 0.0032,-0.00214 0.0066,-0.00409 0.01011,-0.00573 0.0037,-0.00174 0.0076,-0.00314 0.01141,-0.00443 0.0297,-0.010364 0.06009,-0.018386 0.09049,-0.026309 0.02815,-0.00737 0.05635,-0.014699 0.08471,-0.021426 0.02606,-0.00618 0.05232,-0.011809 0.07868,-0.016941 0.02407,-0.00473 0.04818,-0.00907 0.0724,-0.012955 0.02202,-0.00354 0.044,-0.00663 0.06607,-0.00942 0.01978,-0.00244 0.03966,-0.00458 0.05954,-0.00628 0.01754,-0.00159 0.03518,-0.00284 0.05282,-0.00379 0.0153,-7.972e-4 0.03064,-0.00135 0.04599,-0.00164 0.01913,-2.99e-4 0.03822,-1.993e-4 0.0573,4.983e-4 0.0089,-0.043599 0.01824,-0.087098 0.02815,-0.1304983 0.0099,-0.04335 0.02033,-0.08665 0.03124,-0.1297509 -0.0087,-0.00384 -0.01744,-0.00777 -0.02606,-0.011859 -0.0087,-0.00404 -0.01724,-0.00827 -0.02576,-0.012557 -0.0137,-0.00693 -0.02731,-0.014051 -0.04071,-0.021426 -0.0155,-0.00852 -0.03084,-0.01729 -0.04604,-0.026309 -0.01714,-0.010215 -0.03408,-0.020728 -0.05082,-0.031541 -0.01869,-0.012008 -0.03717,-0.024415 -0.05546,-0.037122 -0.02013,-0.014002 -0.03996,-0.028402 -0.05964,-0.043101 -0.02148,-0.016094 -0.0427,-0.032537 -0.06348,-0.049379 -0.02267,-0.018337 -0.04489,-0.037171 -0.06707,-0.056056 -0.02397,-0.02033 -0.04788,-0.040709 -0.07011,-0.062932 -0.0029,-0.00294 -0.0058,-0.00583 -0.0083,-0.00897 -0.0024,-0.00304 -0.0047,-0.00628 -0.0067,-0.00962 -0.0019,-0.00334 -0.0037,-0.00683 -0.0052,-0.010414 -0.0015,-0.00359 -0.0027,-0.00727 -0.0037,-0.011062 -9.96e-4,-0.00374 -0.0017,-0.00757 -0.0021,-0.011411 -4.98e-4,-0.00389 -6.98e-4,-0.00777 -5.98e-4,-0.01161 2.49e-4,-0.00762 0.0015,-0.015197 0.0036,-0.022472 8.97e-4,-0.00329 0.0019,-0.00653 0.0029,-0.00972 0.001,-0.00324 0.002,-0.00648 0.003,-0.00977 9.46e-4,-0.00319 0.002,-0.00648 0.0029,-0.00967 9.97e-4,-0.00324 0.0019,-0.00648 0.003,-0.00972 0.0024,-0.00713 0.0055,-0.014201 0.0097,-0.020579 0.0021,-0.00324 0.0045,-0.00638 0.007,-0.00932 0.0025,-0.00289 0.0054,-0.00568 0.0083,-0.00822 0.0029,-0.00254 0.006,-0.00488 0.0093,-0.00703 0.0033,-0.00214 0.0067,-0.00404 0.01021,-0.00568 0.0035,-0.00164 0.0072,-0.00309 0.01091,-0.00419 0.0039,-0.00115 0.0079,-0.00194 0.01191,-0.00274 0.03089,-0.00578 0.06213,-0.00917 0.09338,-0.012457 0.029,-0.00309 0.05795,-0.00618 0.087,-0.00857 0.02671,-0.00219 0.05347,-0.00384 0.08032,-0.00503 0.02446,-0.0011 0.04903,-0.00174 0.07354,-0.00199 0.02222,-1.993e-4 0.0445,0 0.06672,5.481e-4 0.01993,4.983e-4 0.03986,0.0014 0.05979,0.00259 0.01759,0.0011 0.03518,0.00249 0.05277,0.00419 0.01525,0.00149 0.03054,0.00319 0.04574,0.00528 0.01893,0.00249 0.03782,0.00548 0.05661,0.00902 0.01525,-0.041805 0.03099,-0.083411 0.04729,-0.1248678 0.01624,-0.041407 0.03299,-0.082664 0.05023,-0.1236719 -0.01614,-0.010165 -0.03199,-0.020828 -0.04758,-0.03184 -0.01256,-0.00892 -0.02491,-0.018038 -0.03712,-0.027305 -0.01405,-0.010713 -0.0279,-0.021675 -0.04151,-0.032836 -0.01545,-0.012606 -0.03064,-0.025562 -0.04559,-0.038766 -0.01674,-0.014699 -0.03314,-0.029697 -0.04933,-0.044994 -0.01784,-0.016842 -0.03528,-0.034032 -0.05257,-0.051472 -0.01883,-0.019134 -0.03737,-0.038517 -0.05541,-0.058348 -0.01968,-0.021476 -0.03881,-0.0434 -0.05795,-0.065374 -0.02068,-0.023718 -0.04126,-0.047386 -0.05994,-0.072748 -0.0024,-0.00329 -0.0048,-0.00658 -0.0069,-0.010065 -0.002,-0.00334 -0.0037,-0.00688 -0.0052,-0.010464 -0.0014,-0.00364 -0.0027,-0.00732 -0.0036,-0.011112 -9.47e-4,-0.00379 -0.0016,-0.00757 -0.002,-0.01146 -3.49e-4,-0.00389 -5.48e-4,-0.00777 -3.99e-4,-0.01166 1e-4,-0.00389 5.48e-4,-0.00777 0.0012,-0.01161 0.0013,-0.00747 0.0038,-0.014699 0.0069,-0.021625 0.0014,-0.00309 0.0029,-0.00613 0.0044,-0.00922 0.0015,-0.00299 0.0029,-0.00608 0.0044,-0.00912 0.0015,-0.00304 0.0029,-0.00608 0.0044,-0.00917 0.0015,-0.00304 0.0029,-0.00613 0.0045,-0.00907 0.0034,-0.00678 0.0076,-0.013254 0.01256,-0.018984 0.0026,-0.00289 0.0054,-0.00563 0.0083,-0.00812 0.003,-0.00254 0.0061,-0.00483 0.0094,-0.00693 0.0033,-0.00209 0.0067,-0.00394 0.01026,-0.00558 0.0035,-0.00159 0.0072,-0.00294 0.01091,-0.00409 0.0037,-0.0011 0.0075,-0.00194 0.01136,-0.00249 0.004,-5.481e-4 0.0081,-7.475e-4 0.01221,-8.969e-4 0.03139,-0.00115 0.06283,1.494e-4 0.09422,0.00149 0.0291,0.0013 0.0582,0.00259 0.08725,0.00453 0.02676,0.00184 0.05352,0.00419 0.08022,0.00698 0.02437,0.00259 0.04868,0.00558 0.073,0.00902 0.02202,0.00309 0.044,0.00658 0.06587,0.010464 0.01963,0.00349 0.03921,0.00732 0.05875,0.01151 0.01724,0.00369 0.03448,0.00767 0.05157,0.011959 0.0149,0.00374 0.02975,0.00777 0.0445,0.012058 0.01834,0.00523 0.03652,0.011012 0.05461,0.01734 0.0426,-0.078129 0.0871,-0.1552127 0.133438,-0.2311997 -0.0145,-0.012457 -0.02855,-0.025362 -0.04235,-0.038616 -0.01106,-0.010613 -0.02187,-0.021476 -0.03259,-0.032487 -0.01231,-0.012706 -0.02437,-0.025611 -0.03618,-0.038666 -0.0134,-0.014849 -0.02651,-0.029847 -0.03931,-0.045144 -0.0143,-0.016991 -0.02835,-0.034281 -0.04206,-0.051821 -0.0151,-0.019283 -0.02985,-0.038965 -0.04425,-0.058747 -0.01584,-0.021725 -0.03124,-0.043649 -0.04619,-0.065922 -0.01619,-0.024216 -0.03189,-0.048781 -0.04754,-0.073296 -0.01689,-0.026508 -0.03373,-0.053017 -0.04843,-0.08087 -0.0019,-0.00359 -0.0038,-0.00727 -0.0053,-0.011012 -0.0014,-0.00359 -0.0026,-0.00732 -0.0035,-0.011112 -8.97e-4,-0.00379 -0.0016,-0.00762 -0.0019,-0.01151 -3.49e-4,-0.00384 -4.99e-4,-0.00777 -3.49e-4,-0.01166 1.99e-4,-0.00384 6.48e-4,-0.00772 0.0013,-0.01161 6.98e-4,-0.00379 0.0017,-0.00757 0.0029,-0.011211 0.0025,-0.00723 0.006,-0.014051 0.01006,-0.020429 0.0018,-0.00284 0.0038,-0.00563 0.0057,-0.00842 0.0019,-0.00274 0.0038,-0.00558 0.0057,-0.00837 0.0019,-0.00279 0.0038,-0.00558 0.0058,-0.00842 0.0019,-0.00279 0.0037,-0.00563 0.0057,-0.00832 0.0044,-0.00618 0.0095,-0.011909 0.0153,-0.016842 0.003,-0.00249 0.0062,-0.00478 0.0095,-0.00683 0.0033,-0.00204 0.0067,-0.00389 0.01027,-0.00543 0.0035,-0.00159 0.0072,-0.00294 0.01096,-0.00399 0.0037,-0.0011 0.0076,-0.00184 0.01141,-0.00239 0.0039,-5.481e-4 0.0078,-8.47e-4 0.01166,-7.972e-4 0.0041,0 0.0081,3.986e-4 0.01216,8.969e-4 0.03129,0.00354 0.06213,0.00952 0.09298,0.015596 0.02855,0.00553 0.0571,0.011211 0.0856,0.01744 0.02616,0.00578 0.05227,0.012108 0.07818,0.018885 0.02377,0.00618 0.04744,0.012706 0.07095,0.019781 0.02128,0.00633 0.04245,0.013105 0.06358,0.02018 0.01888,0.00638 0.03767,0.013055 0.05631,0.02008 0.01659,0.00623 0.03298,0.012756 0.04923,0.019532 0.0142,0.00593 0.02825,0.012058 0.0422,0.018536 0.01734,0.00797 0.03448,0.016343 0.05137,0.025312 0.05386,-0.070905 0.109322,-0.1405137 0.166474,-0.2087774 -0.01246,-0.01445 -0.02446,-0.029299 -0.03612,-0.044446 -0.0094,-0.012208 -0.01844,-0.024515 -0.02741,-0.037022 -0.01026,-0.01435 -0.02023,-0.0289 -0.03,-0.043599 -0.01106,-0.016642 -0.02173,-0.033484 -0.03214,-0.050475 -0.01166,-0.018934 -0.02292,-0.038168 -0.03383,-0.057501 -0.01206,-0.021376 -0.02377,-0.042951 -0.03508,-0.064726 -0.01236,-0.023818 -0.02437,-0.047834 -0.03578,-0.072051 -0.01246,-0.026359 -0.02427,-0.052967 -0.03607,-0.079624 -0.01276,-0.028701 -0.02551,-0.057451 -0.03588,-0.087098 -0.0013,-0.00389 -0.0026,-0.00772 -0.0036,-0.01171 -9.47e-4,-0.00379 -0.0015,-0.00762 -0.0018,-0.01151 -2.99e-4,-0.00389 -3.49e-4,-0.00777 -1.49e-4,-0.01161 1.49e-4,-0.00394 6.47e-4,-0.00782 0.0014,-0.01161 7.47e-4,-0.00384 0.0017,-0.00757 0.003,-0.011261 0.0013,-0.00374 0.0028,-0.00727 0.0046,-0.010763 0.0035,-0.00673 0.008,-0.012905 0.013,-0.018635 0.0023,-0.00254 0.0046,-0.00498 0.0069,-0.00747 0.0023,-0.00244 0.0046,-0.00493 0.0069,-0.00747 0.0023,-0.00244 0.0047,-0.00493 0.007,-0.00737 0.0022,-0.00254 0.0045,-0.00503 0.0069,-0.00742 0.0053,-0.00543 0.01116,-0.010414 0.01759,-0.0144 0.0033,-0.00199 0.0068,-0.00379 0.01036,-0.00528 0.0036,-0.00159 0.0073,-0.00289 0.01106,-0.00394 0.0037,-9.966e-4 0.0075,-0.00174 0.01141,-0.00224 0.0038,-4.484e-4 0.0077,-6.976e-4 0.01166,-6.976e-4 0.0038,4.99e-5 0.0078,3.488e-4 0.01161,9.468e-4 0.004,6.975e-4 0.0079,0.00164 0.01191,0.00274 0.03035,0.00812 0.05994,0.018685 0.08959,0.029249 0.02741,0.00982 0.05481,0.019582 0.08202,0.030046 0.02501,0.00957 0.04988,0.019732 0.07454,0.030295 0.02257,0.00967 0.04494,0.019682 0.06717,0.030096 0.02008,0.00947 0.04006,0.019283 0.05984,0.029448 0.01774,0.00912 0.03533,0.018536 0.05272,0.028302 0.01545,0.00862 0.03069,0.017489 0.04579,0.026658 0.0131,0.00797 0.02611,0.016144 0.03896,0.024615 0.01595,0.010464 0.03164,0.021326 0.04709,0.032637 0.06373,-0.062085 0.128947,-0.1226256 0.195617,-0.1815716 -0.0101,-0.016144 -0.0198,-0.032637 -0.029,-0.049379 -0.008,-0.013404 -0.0147,-0.027007 -0.0216,-0.040659 -0.008,-0.015746 -0.0157,-0.03164 -0.0232,-0.047635 -0.008,-0.018038 -0.01649,-0.036324 -0.02422,-0.054661 -0.0087,-0.020479 -0.01699,-0.041158 -0.02491,-0.061936 -0.0087,-0.022871 -0.01704,-0.045991 -0.02501,-0.06921 -0.0087,-0.025412 -0.01694,-0.050924 -0.02461,-0.076585 -0.0084,-0.027953 -0.0161,-0.056006 -0.02387,-0.084059 -0.0083,-0.030295 -0.01659,-0.06064 -0.02242,-0.091533 -7.48e-4,-0.00399 -0.0015,-0.00802 -0.0019,-0.012058 -2.99e-4,-0.00389 -2.99e-4,-0.00782 -5e-5,-0.01166 2.99e-4,-0.00389 7.48e-4,-0.00777 0.0015,-0.01161 7.97e-4,-0.00384 0.0018,-0.00757 0.0031,-0.011211 0.0013,-0.00369 0.0028,-0.00723 0.0047,-0.010663 0.0018,-0.00349 0.0038,-0.00678 0.0061,-0.00997 0.0044,-0.00613 0.0098,-0.01161 0.0156,-0.016493 0.0026,-0.00219 0.0053,-0.00424 0.0079,-0.00638 0.0026,-0.00209 0.0053,-0.00419 0.0079,-0.00633 0.0027,-0.00209 0.0053,-0.00419 0.008,-0.00628 0.0026,-0.00214 0.0053,-0.00429 0.0079,-0.00638 0.0061,-0.00453 0.01261,-0.00857 0.01958,-0.01151 0.0036,-0.00154 0.0073,-0.00279 0.01101,-0.00374 0.0038,-9.965e-4 0.0076,-0.00174 0.01151,-0.00219 0.0038,-4.983e-4 0.0078,-6.477e-4 0.01161,-5.979e-4 0.0039,9.96e-5 0.0078,4.484e-4 0.01161,0.0011 0.0039,5.979e-4 0.0077,0.00149 0.01136,0.00269 0.004,0.00125 0.008,0.00284 0.0114,0.00443 0.0288,0.012606 0.0566,0.027405 0.0842,0.042304 0.0257,0.013752 0.0513,0.027505 0.0766,0.041905 0.0234,0.013204 0.0464,0.026957 0.0692,0.041108 0.0209,0.012855 0.0415,0.02611 0.0619,0.039762 0.0185,0.012357 0.0367,0.025014 0.0548,0.038068 0.0162,0.01166 0.0322,0.023568 0.048,0.035776 0.0139,0.010862 0.0277,0.021874 0.0412,0.033235 0.0118,0.00982 0.0234,0.019831 0.0349,0.030096 0.0142,0.012706 0.0282,0.025761 0.0417,0.039314 0.0723,-0.05187 0.1458,-0.1019969 0.22054,-0.1504293 l -0.005,-0.011909 -0.0477,-0.047436 -0.10254,-0.1231238 -0.0861,-0.1270104 -0.0699,-0.1303986 -0.0541,-0.1325412 -0.0386,-0.1339863 -0.0235,-0.1341357 -0.009,-0.1335876 0.005,-0.131744 0.0176,-0.1292526 0.0298,-0.1257647 0.041,-0.1218781 0.0517,-0.1170947 0.0614,-0.1118628 0.0706,-0.1059334 0.0127,-0.015995 z m 2.19311,13.6844836 c 0.32074,0.04345 0.6479,0.06642 0.9806,0.06642 1.17519,0 2.28504,-0.2804293 3.2664,-0.7772596 l -0.0214,-0.010962 -0.0979,-0.051671 -0.0974,-0.052468 -0.132,-0.07509 -0.12192,-0.074592 -0.11227,-0.074044 -0.10419,-0.073446 -0.0971,-0.073197 -0.0914,-0.072599 -0.0871,-0.072399 -0.065,-0.055607 c -0.005,0.00154 -0.0104,0.00269 -0.0157,0.00324 -0.004,4.484e-4 -0.008,5.481e-4 -0.0117,3.488e-4 -0.004,-1.495e-4 -0.008,-5.98e-4 -0.0116,-0.0013 -0.004,-6.976e-4 -0.008,-0.00169 -0.0113,-0.00289 -0.004,-0.0012 -0.007,-0.00274 -0.0108,-0.00448 -0.003,-0.00169 -0.007,-0.00364 -0.01,-0.00588 -0.003,-0.00234 -0.006,-0.00493 -0.01,-0.00762 -0.0239,-0.020529 -0.0459,-0.042852 -0.0681,-0.065174 -0.0205,-0.020728 -0.041,-0.041506 -0.0609,-0.062683 -0.0183,-0.019532 -0.0364,-0.039463 -0.054,-0.059693 -0.0161,-0.018486 -0.032,-0.037221 -0.0475,-0.056255 l -0.0156,-0.019781 -0.0307,-0.025861 -0.0925,-0.07519 -0.099,-0.076884 -0.009,-0.00693 -0.0385,0.011859 -0.12801,0.037819 c -10e-4,3.488e-4 0.004,0.038018 0.005,0.057102 9.4e-4,0.015347 10e-4,0.030694 0.002,0.046041 3.5e-4,0.017639 4.5e-4,0.035328 2e-4,0.052917 -2.5e-4,0.019981 -9e-4,0.039962 -0.002,0.059843 -0.001,0.022223 -0.003,0.044446 -0.004,0.06657 -0.002,0.024465 -0.005,0.048831 -0.007,0.073197 -0.003,0.026658 -0.007,0.053266 -0.011,0.079774 -0.005,0.028701 -0.01,0.057352 -0.015,0.086052 -0.006,0.030893 -0.0114,0.061836 -0.0195,0.092181 -0.001,0.00394 -0.002,0.00787 -0.004,0.011709 -10e-4,0.00359 -0.003,0.00713 -0.005,0.010464 -0.002,0.00344 -0.004,0.00668 -0.006,0.00977 -0.002,0.00309 -0.005,0.00608 -0.008,0.00877 -0.003,0.00274 -0.006,0.00528 -0.009,0.00762 -0.003,0.00234 -0.006,0.00443 -0.01,0.00633 -0.007,0.00359 -0.0139,0.00618 -0.0212,0.00802 -0.003,8.471e-4 -0.007,0.00154 -0.01,0.00234 -0.003,6.976e-4 -0.007,0.00149 -0.01,0.00224 -0.003,7.973e-4 -0.007,0.00149 -0.01,0.00224 -0.003,7.474e-4 -0.007,0.00159 -0.01,0.00224 -0.007,0.00154 -0.0151,0.00224 -0.0227,0.00194 -0.004,-1.993e-4 -0.008,-6.478e-4 -0.0116,-0.00145 -0.004,-6.976e-4 -0.008,-0.00174 -0.0113,-0.00299 -0.004,-0.00125 -0.007,-0.00279 -0.0108,-0.00453 -0.003,-0.00179 -0.007,-0.00379 -0.01,-0.00603 -0.003,-0.00224 -0.006,-0.00468 -0.009,-0.00732 -0.003,-0.00279 -0.006,-0.00588 -0.008,-0.00897 -0.0205,-0.023818 -0.039,-0.04923 -0.0575,-0.074642 -0.0171,-0.023518 -0.0343,-0.047037 -0.0508,-0.071054 -0.0153,-0.022024 -0.0301,-0.044396 -0.0445,-0.067018 -0.0132,-0.020679 -0.0261,-0.041556 -0.0385,-0.062733 -0.0113,-0.019134 -0.0223,-0.038467 -0.0329,-0.057999 -0.009,-0.017539 -0.0187,-0.035228 -0.0276,-0.053116 -0.008,-0.015795 -0.0155,-0.03169 -0.0228,-0.047785 -0.006,-0.013952 -0.0125,-0.028053 -0.0183,-0.042204 -0.004,-0.00887 -0.007,-0.017739 -0.0107,-0.026658 -0.003,-0.00892 -0.007,-0.017888 -0.01,-0.026857 -0.0438,0.00767 -0.0876,0.015347 -0.13174,0.021476 l -0.13219,0.018287 c -7e-4,4.98e-5 -0.002,0.038168 -0.004,0.057152 -0.001,0.015347 -0.003,0.030594 -0.005,0.045791 -0.002,0.017489 -0.005,0.034979 -0.008,0.052418 -0.003,0.019682 -0.007,0.039314 -0.0107,0.058796 -0.004,0.021874 -0.009,0.043549 -0.0143,0.065224 -0.006,0.023867 -0.0118,0.047585 -0.0183,0.071253 -0.007,0.025861 -0.0146,0.051621 -0.0228,0.077183 -0.009,0.027754 -0.0182,0.055358 -0.0277,0.082913 -0.0102,0.029697 -0.0204,0.059394 -0.0329,0.088245 -0.002,0.00369 -0.003,0.00747 -0.005,0.011012 -0.002,0.00339 -0.004,0.00663 -0.006,0.00967 -0.002,0.00309 -0.005,0.00598 -0.008,0.00872 -0.003,0.00269 -0.006,0.00518 -0.009,0.00747 -0.003,0.00229 -0.006,0.00438 -0.01,0.00623 -0.003,0.00179 -0.007,0.00344 -0.0107,0.00473 -0.007,0.00259 -0.0147,0.00409 -0.0222,0.00483 -0.003,3.488e-4 -0.007,5.481e-4 -0.0101,7.973e-4 -0.003,2.491e-4 -0.007,4.983e-4 -0.0101,7.474e-4 -0.003,2.491e-4 -0.007,5.481e-4 -0.0102,7.474e-4 -0.003,2.99e-4 -0.007,5.979e-4 -0.0102,7.972e-4 -0.008,3.488e-4 -0.0152,0 -0.0226,-0.00149 -0.004,-7.972e-4 -0.008,-0.00184 -0.0113,-0.00314 -0.004,-0.0013 -0.007,-0.00284 -0.0107,-0.00468 -0.003,-0.00179 -0.007,-0.00379 -0.01,-0.00613 -0.003,-0.00219 -0.006,-0.00473 -0.009,-0.00737 -0.003,-0.00264 -0.005,-0.00553 -0.008,-0.00857 -0.002,-0.00329 -0.005,-0.00668 -0.007,-0.010165 -0.0168,-0.026608 -0.0313,-0.054462 -0.0458,-0.082315 l -0.009,-0.017988 -0.0139,0.029099 -0.0331,0.066271 -0.0341,0.064527 -0.0364,0.064178 -0.14161,0.2179954 -0.14943,0.1882484 -0.15542,0.1578536 -0.16094,0.1284056 -0.16543,0.099356 -0.16856,0.070855 -0.16982,0.042951 -0.0616,0.00588 z m 5.97477,-1.9314147 c 0.66769,-0.6360983 1.21394,-1.3985093 1.60061,-2.2487663 l -0.0345,0.032338 -0.0884,0.071552 -0.0904,0.062384 -0.0927,0.053465 -0.0946,0.044546 -0.0964,0.035876 -0.0978,0.027505 -0.0992,0.019682 -0.10006,0.012208 -0.10095,0.00553 -0.10189,-6.976e-4 -0.10295,-0.00608 -0.10404,-0.011062 -0.10548,-0.015247 -0.10713,-0.019134 -0.10374,-0.021326 0.0117,0.018536 c 0.0169,0.026458 0.0337,0.053017 0.0484,0.08082 0.002,0.00359 0.004,0.00723 0.005,0.011012 10e-4,0.00359 0.003,0.00727 0.004,0.011112 9e-4,0.00379 0.002,0.00762 0.002,0.01151 4e-4,0.00389 5e-4,0.00772 3e-4,0.01166 -1.5e-4,0.00389 -6e-4,0.00772 -0.001,0.01156 -7e-4,0.00384 -0.002,0.00762 -0.003,0.011311 -0.002,0.00718 -0.006,0.014002 -0.0101,0.02038 -0.002,0.00284 -0.004,0.00563 -0.006,0.00837 -0.002,0.00284 -0.004,0.00563 -0.006,0.00842 -0.002,0.00279 -0.004,0.00563 -0.006,0.00837 -0.002,0.00284 -0.004,0.00563 -0.006,0.00842 -0.004,0.00613 -0.009,0.011859 -0.0153,0.016792 -0.003,0.00249 -0.006,0.00478 -0.009,0.00683 -0.003,0.00204 -0.007,0.00389 -0.0103,0.00543 -0.004,0.00159 -0.007,0.00294 -0.011,0.00399 -0.004,0.0011 -0.008,0.00189 -0.0114,0.00239 -0.004,5.481e-4 -0.008,8.471e-4 -0.0116,7.972e-4 -0.004,0 -0.008,-4.484e-4 -0.0122,-8.969e-4 -0.0313,-0.00349 -0.0621,-0.00957 -0.093,-0.015596 -0.0286,-0.00553 -0.0572,-0.011161 -0.0856,-0.01744 -0.0262,-0.00578 -0.0523,-0.012058 -0.0782,-0.018885 -0.0238,-0.00623 -0.0474,-0.012706 -0.0709,-0.019782 -0.0213,-0.00633 -0.0425,-0.013055 -0.0636,-0.02018 -0.0189,-0.00638 -0.0377,-0.013055 -0.0564,-0.020081 -0.0165,-0.00623 -0.0329,-0.012706 -0.0492,-0.019582 -0.0142,-0.00588 -0.0282,-0.012058 -0.0421,-0.018486 -0.009,-0.00399 -0.0173,-0.00812 -0.0259,-0.012307 l -0.0194,-0.00992 -0.0125,0.00548 c -0.0247,0.032537 -0.0497,0.065174 -0.0755,0.096765 l -0.0845,0.1033921 c 0,0 0.0245,0.029348 0.0361,0.044496 0.009,0.012208 0.0184,0.024515 0.0274,0.037022 0.0102,0.01435 0.0202,0.0289 0.03,0.043649 0.011,0.016593 0.0217,0.033434 0.0321,0.050425 0.0117,0.018984 0.0229,0.038168 0.0338,0.057501 0.0121,0.021376 0.0237,0.042951 0.0351,0.064726 0.0124,0.023818 0.0243,0.047835 0.0358,0.0721 0.0125,0.026309 0.0243,0.052917 0.036,0.079575 0.0128,0.028701 0.0255,0.057451 0.0359,0.087099 10e-4,0.00384 0.003,0.00777 0.004,0.01166 9.5e-4,0.00384 0.002,0.00767 0.002,0.01156 2.5e-4,0.00389 3.5e-4,0.00777 2e-4,0.01166 -2e-4,0.00389 -7e-4,0.00777 -0.001,0.01161 -7.5e-4,0.00379 -0.002,0.00752 -0.003,0.011211 -10e-4,0.00374 -0.003,0.00732 -0.005,0.010713 -0.004,0.00678 -0.008,0.013005 -0.0131,0.018685 -0.002,0.00254 -0.005,0.00503 -0.007,0.00742 -0.002,0.00249 -0.005,0.00498 -0.007,0.00747 -0.002,0.00249 -0.005,0.00493 -0.007,0.00747 -0.002,0.00249 -0.005,0.00498 -0.007,0.00737 -0.005,0.00543 -0.0112,0.010414 -0.0176,0.0144 -0.003,0.00199 -0.007,0.00379 -0.0104,0.00533 -0.004,0.00154 -0.007,0.00284 -0.011,0.00384 -0.004,0.00105 -0.008,0.00184 -0.0114,0.00234 -0.004,4.485e-4 -0.008,6.976e-4 -0.0117,6.478e-4 -0.004,-4.98e-5 -0.008,-3.488e-4 -0.0117,-9.467e-4 -0.004,-6.478e-4 -0.008,-0.00169 -0.0119,-0.00274 -0.0303,-0.00812 -0.06,-0.018685 -0.0896,-0.029249 -0.0275,-0.00977 -0.0548,-0.019582 -0.0821,-0.029996 -0.025,-0.00962 -0.0499,-0.019732 -0.0745,-0.030345 -0.0226,-0.00967 -0.045,-0.019682 -0.0672,-0.030096 -0.0201,-0.00947 -0.0401,-0.019283 -0.0598,-0.029448 -0.0177,-0.00917 -0.0353,-0.018536 -0.0527,-0.028302 -0.0154,-0.00862 -0.0307,-0.017489 -0.0457,-0.026658 -0.0132,-0.00792 -0.0261,-0.016144 -0.039,-0.024565 -0.008,-0.00523 -0.0159,-0.010613 -0.0237,-0.016044 -0.008,-0.00543 -0.0157,-0.011012 -0.0233,-0.016642 -0.031,0.030245 -0.0621,0.060441 -0.0941,0.08954 l 0.0329,0.037171 0.0385,0.042403 0.042,0.046041 0.0435,0.048432 0.17559,0.1930319 0.17131,0.178532 0.16846,0.1653776 0.16573,0.1526715 0.16323,0.1403642 0.1609,0.1285052 0.0407,0.029996 z" /><path
     d="m 110.47447,6.3663483 c -1.28062,0.020529 -2.5586,-0.4706709 -3.56178,-1.0193716 -0.71422,-0.3906977 -0.89829,-0.7265851 -1.57026,-1.1835035 -0.94368,-0.6417288 -1.17095,0.5675355 -1.52084,1.1598354 -1.40797,2.3834999 -3.68081,-1.0102034 -1.46273,-1.6536263 0.39169,-0.1136566 1.86738,-0.1258145 1.38819,-0.8341627 -0.45971,-0.6796973 -0.76281,-1.4116638 -0.89096,-2.05922235 -0.27929,-1.41071706 -0.0143,-2.44737885 0.45846,-3.80657425 0.38063,-0.8565352 0.44715,-1.296911 -0.36125,-1.7782449 -0.71089,-0.4232351 -1.65961,-0.4616521 -2.01752,-0.786976 -1.237863,-1.1249562 0.37331,-2.8634388 1.53384,-1.9000733 0.29608,0.2457992 0.41417,0.424132 0.67447,1.22496 0.14116,0.4341473 1.12411,1.4244197 1.46244,0.8230512 0.41117,-0.73092 0.35148,-1.6954316 0.48691,-2.5145463 0.34864,-2.1087007 1.97741,-3.9416567 3.84758,-2.2367077 0.79221,0.7222497 0.64761,2.3874359 -0.41322,3.5322733 -0.92669,0.9999887 -2.43821,1.5757957 -1.7605,2.5136494 0.44247,0.6123804 0.73515,0.6444195 1.03128,0.1265121 0.15601,-0.273005 -0.0609,-0.9391493 0.17559,-1.2737411 0.66844,-0.9455771 2.27782,-0.562802 2.23247,0.6482561 -0.0451,1.2039329 -0.78139,1.115788 -1.83644,1.313105 -0.18043,0.033783 -0.45174,0.6312151 -0.86829,0.6635034 -0.92999,0.07215 -1.55632,-0.6762094 -1.01948,1.2565507 0.20963,0.75483722 -0.002,1.58331958 0.175,2.34607942 0.39249,1.69289038 1.3715,0.19268308 1.67495,-0.47550413 0.28775,-0.63380619 1.57091,-0.77935241 1.99709,-0.20414339 0.43031,0.58073987 0.46539,1.2319857 -0.0279,1.7258264 -0.41187,0.4123726 -0.84891,0.4153124 -1.41704,0.2917402 -0.52434,-0.1141549 -1.05794,0.2181947 -1.45482,0.6067 -0.25431,0.249038 -0.0672,0.3852166 0.16757,0.6504984 1.90795,2.155539 3.32006,1.9809433 5.36533,1.4941782 1.54735,-0.3683251 2.71954,-1.2341283 4.31397,-1.3090191 1.88513,-0.088544 3.76447,0.3472481 5.61262,0.7363014 0.0954,0.03179 0.21586,0.1004523 0.0833,0.1667229 -2.2982,0 -4.54557,-0.5450135 -6.82124,-0.027804 -1.58317,0.5370909 -2.98353,1.4325913 -4.65404,1.7087853 -0.33011,0.054611 -0.5659,0.067317 -1.02281,0.074692 z"
     id="_27459040"
     style="fill:#da251d" /><circle
     transform="matrix(0.49827531,0,0,0.49827531,93.35268,-11.759313)"
     cx="26.933599"
     cy="4.23911"
     r="0.939165"
     id="_152043536"
     style="fill:#ffffff"
     d="m 27.872764,4.23911 c 0,0.5186865 -0.420478,0.939165 -0.939165,0.939165 -0.518686,0 -0.939165,-0.4204785 -0.939165,-0.939165 0,-0.5186865 0.420479,-0.939165 0.939165,-0.939165 0.518687,0 0.939165,0.4204785 0.939165,0.939165 z"
     sodipodi:cx="26.933599"
     sodipodi:cy="4.23911"
     sodipodi:rx="0.939165"
     sodipodi:ry="0.939165" /><circle
     transform="matrix(0.49827531,0,0,0.49827531,93.35268,-11.759313)"
     cx="30.3361"
     cy="6.4349999"
     r="0.939165"
     id="_27451104"
     style="fill:#ffffff"
     d="m 31.275265,6.4349999 c 0,0.5186865 -0.420479,0.939165 -0.939165,0.939165 -0.518687,0 -0.939165,-0.4204785 -0.939165,-0.939165 0,-0.5186865 0.420478,-0.939165 0.939165,-0.939165 0.518686,0 0.939165,0.4204785 0.939165,0.939165 z"
     sodipodi:cx="30.3361"
     sodipodi:cy="6.4349999"
     sodipodi:rx="0.939165"
     sodipodi:ry="0.939165" /></g>
<text
   xml:space="preserve"
   style="font-size:13.31346512px;font-style:normal;font-weight:normal;fill:#ffffff;fill-opacity:1;stroke:none;font-family:Bitstream Vera Sans"
   x="-86.488541"
   y="2.45626"
   id="text3679"
   inkscape:export-filename="/home/jvanden/public_html/optiweb/images/all.png"
   inkscape:export-xdpi="90.001915"
   inkscape:export-ydpi="90.001915"><tspan
     sodipodi:role="line"
     id="tspan3681"
     x="-86.488541"
     y="2.45626"
     style="font-style:normal;font-variant:normal;font-weight:normal;font-stretch:normal;font-family:Chemical Reaction A BRK;-inkscape-font-specification:Chemical Reaction A BRK">Optimization Framework Log</tspan></text>

<rect
   style="fill:#000000;fill-opacity:1;stroke:#858585;stroke-width:0.27516666;stroke-linecap:round;stroke-miterlimit:4;stroke-opacity:1;stroke-dasharray:none;stroke-dashoffset:0"
   id="rect3718"
   width="225.50272"
   height="8.191596"
   x="-78.588768"
   y="34.712959"
   rx="3"
   ry="3"
   inkscape:export-filename="/home/jvanden/public_html/optiweb/images/status_row.png"
   inkscape:export-xdpi="90"
   inkscape:export-ydpi="90" /><rect
   y="72.427727"
   x="-5.4973373"
   height="5.6444445"
   width="5.6444445"
   id="rect3639"
   style="fill:url(#linearGradient3647);fill-opacity:1;stroke:none"
   inkscape:export-filename="/home/jvanden/public_html/optiweb/images/progress.png"
   inkscape:export-xdpi="90"
   inkscape:export-ydpi="90" /><rect
   style="fill:none;stroke:#ffffff;stroke-width:0.28222224;stroke-linecap:round;stroke-miterlimit:4;stroke-opacity:1;stroke-dasharray:none;stroke-dashoffset:0"
   id="rect2865"
   width="67.563148"
   height="5.3622208"
   x="70.934624"
   y="67.920471" /></svg>